<svg xmlns="http://www.w3.org/2000/svg" width="23.442" height="24.503" viewBox="0 0 23.442 24.503">
  <g id="_002-badge" data-name="002-badge" transform="translate(-2.367 -1.748)">
    <path id="Pfad_46699" data-name="Pfad 46699"
      d="M24.374,14a3.428,3.428,0,0,1,.506-1.183,3.223,3.223,0,0,0,.626-2.528,3.266,3.266,0,0,0-2.04-1.714A3.583,3.583,0,0,1,22.411,8a3.428,3.428,0,0,1-.266-1.217,3.248,3.248,0,0,0-1-2.451,3.214,3.214,0,0,0-2.623-.189,3.24,3.24,0,0,1-1.251.111,3.111,3.111,0,0,1-.857-.8A3.3,3.3,0,0,0,14.089,2,3.3,3.3,0,0,0,11.8,3.414a3.111,3.111,0,0,1-.857.8A3.24,3.24,0,0,1,9.692,4.1a3.214,3.214,0,0,0-2.623.189A3.248,3.248,0,0,0,6.032,6.74,3.429,3.429,0,0,1,5.766,8a3.583,3.583,0,0,1-1.054.617,3.266,3.266,0,0,0-2.04,1.714A3.223,3.223,0,0,0,3.3,12.86,3.428,3.428,0,0,1,3.8,14,3.428,3.428,0,0,1,3.3,15.182a3.223,3.223,0,0,0-.626,2.528,3.266,3.266,0,0,0,2.04,1.714,3.583,3.583,0,0,1,1.054.617,3.428,3.428,0,0,1,.266,1.217,3.248,3.248,0,0,0,1,2.451,3.214,3.214,0,0,0,2.623.189,3.24,3.24,0,0,1,1.251-.111,3.111,3.111,0,0,1,.857.8A3.3,3.3,0,0,0,14.089,26a3.3,3.3,0,0,0,2.288-1.414,3.111,3.111,0,0,1,.857-.8,3.24,3.24,0,0,1,1.251.111,3.214,3.214,0,0,0,2.623-.189,3.248,3.248,0,0,0,1-2.451,3.428,3.428,0,0,1,.266-1.217,3.583,3.583,0,0,1,1.054-.617,3.266,3.266,0,0,0,2.04-1.714,3.223,3.223,0,0,0-.626-2.528A3.429,3.429,0,0,1,24.374,14Zm-.986,2.023c.189.343.549.969.489,1.157s-.7.5-1.114.686a4.183,4.183,0,0,0-1.714,1.174,4.088,4.088,0,0,0-.583,2.023c-.051.429-.129,1.131-.309,1.26s-.857,0-1.269-.1a4.286,4.286,0,0,0-2.126-.069,4.1,4.1,0,0,0-1.654,1.277c-.309.343-.78.857-1.02.857s-.711-.514-1.02-.857a4.1,4.1,0,0,0-1.629-1.277,2.666,2.666,0,0,0-.771-.111,7.243,7.243,0,0,0-1.354.18c-.411.086-1.106.223-1.269.1s-.257-.857-.309-1.26a4.088,4.088,0,0,0-.583-2.023A4.183,4.183,0,0,0,5.44,17.865c-.411-.189-1.037-.471-1.114-.686s.3-.814.489-1.157A4.286,4.286,0,0,0,5.518,14a4.286,4.286,0,0,0-.729-2.023c-.189-.343-.549-.969-.489-1.157s.7-.5,1.114-.686A4.183,4.183,0,0,0,7.129,8.96a4.088,4.088,0,0,0,.583-2.023c.051-.429.129-1.131.309-1.26s.857,0,1.269.1a4.286,4.286,0,0,0,2.126.069,4.1,4.1,0,0,0,1.654-1.277c.309-.343.78-.857,1.02-.857s.711.514,1.02.857a4.1,4.1,0,0,0,1.629,1.277,4.286,4.286,0,0,0,2.126-.069,2.88,2.88,0,0,1,1.269-.1c.18.129.257.857.309,1.26a4.088,4.088,0,0,0,.583,2.023,4.183,4.183,0,0,0,1.714,1.174c.411.189,1.037.471,1.114.686s-.3.857-.489,1.157A4.286,4.286,0,0,0,22.66,14a4.286,4.286,0,0,0,.729,2.023Z"
      transform="translate(0 0)" fill="#2ecf96" stroke="#2ecf96" stroke-width="0.5" />
    <path id="Pfad_46700" data-name="Pfad 46700"
      d="M18.533,12.248,14,16.79l-1.534-1.543a.861.861,0,1,0-1.217,1.217l2.143,2.143a.857.857,0,0,0,1.217,0l5.142-5.142a.861.861,0,1,0-1.217-1.217Z"
      transform="translate(-1.196 -1.428)" fill="#2ecf96" stroke="#2ecf96" stroke-width="0.5" />
  </g>
</svg>