<svg width="19" height="19" viewBox="0 0 19 19" fill="none" xmlns="http://www.w3.org/2000/svg">
<path d="M17.1 9.50002C17.1 11.5157 16.2993 13.4487 14.874 14.874C13.4487 16.2993 11.5156 17.1 9.49998 17.1C7.48434 17.1 5.55125 16.2993 4.12598 14.874C2.70071 13.4487 1.9 11.5157 1.9 9.50002C1.9 7.48438 2.70071 5.55129 4.12598 4.12602C5.55125 2.70075 7.48434 1.90004 9.49998 1.90004C10.222 1.90004 10.925 2.00454 11.59 2.19454L13.0815 0.703041C11.9456 0.235229 10.7284 -0.00367314 9.49998 4.26885e-05C8.25242 4.26885e-05 7.01708 0.245767 5.86449 0.723186C4.7119 1.2006 3.66463 1.90037 2.78248 2.78252C1.00089 4.56411 0 6.98047 0 9.50002C0 12.0196 1.00089 14.4359 2.78248 16.2175C3.66463 17.0997 4.7119 17.7994 5.86449 18.2769C7.01708 18.7543 8.25242 19 9.49998 19C12.0195 19 14.4359 17.9991 16.2175 16.2175C17.9991 14.4359 19 12.0196 19 9.50002M5.61449 7.67603L4.27499 9.02502L8.54998 13.3L18.05 3.80003L16.7105 2.45104L8.54998 10.6115L5.61449 7.67603Z" fill="white"/>
</svg>
