<svg xmlns="http://www.w3.org/2000/svg" width="11" height="13" viewBox="0 0 11 13">
  <g id="Icon_akar-copy" data-name="Icon akar-copy" transform="translate(-5.5 -2.5)">
    <path id="Pfad_47113" data-name="Pfad 47113" d="M12,4.2v7.2a1.2,1.2,0,0,0,1.2,1.2H18a1.2,1.2,0,0,0,1.2-1.2V6.145a1.2,1.2,0,0,0-.361-.858L16.85,3.342A1.2,1.2,0,0,0,16.011,3H13.2A1.2,1.2,0,0,0,12,4.2Z" transform="translate(-3.2)" fill="none" stroke="#44554c" stroke-linecap="round" stroke-linejoin="round" stroke-width="1"/>
    <path id="Pfad_47114" data-name="Pfad 47114" d="M13.2,17.1v1.2A1.2,1.2,0,0,1,12,19.5H7.2A1.2,1.2,0,0,1,6,18.3V11.7a1.2,1.2,0,0,1,1.2-1.2H8.4" transform="translate(0 -4.5)" fill="none" stroke="#44554c" stroke-linecap="round" stroke-linejoin="round" stroke-width="1"/>
  </g>
</svg>