<svg xmlns="http://www.w3.org/2000/svg" width="13.787" height="16" viewBox="0 0 13.787 16">
  <path id="copy" d="M10.179.375V1.839H1.464V12.018H0V1.839A1.413,1.413,0,0,1,.426.8,1.411,1.411,0,0,1,1.464.375h8.715ZM12.357,3.3a1.372,1.372,0,0,1,1,.426,1.376,1.376,0,0,1,.426,1V14.911a1.413,1.413,0,0,1-.426,1.039,1.372,1.372,0,0,1-1,.425h-8a1.453,1.453,0,0,1-1.464-1.464V4.732a1.372,1.372,0,0,1,.426-1A1.415,1.415,0,0,1,4.357,3.3h8Zm0,11.609V4.732h-8V14.911h8Z" transform="translate(0 -0.375)" fill="#a5b5af"/>
</svg>
