<svg xmlns="http://www.w3.org/2000/svg" width="14.163" height="14.163" viewBox="0 0 11.163 11.163">
  <g id="Icon_ion-md-close-circle-outline" data-name="Icon ion-md-close-circle-outline" transform="translate(-3.375 -3.375)">
    <path id="Pfad_47072" data-name="Pfad 47072" d="M8.957,4.5a4.453,4.453,0,1,1-3.15,1.3,4.436,4.436,0,0,1,3.15-1.3m0-1.127a5.582,5.582,0,1,0,5.582,5.582A5.581,5.581,0,0,0,8.957,3.375Z" transform="translate(0 0)" fill="#44554c"/>
    <path id="Pfad_47073" data-name="Pfad 47073" d="M16.787,15.934l-.853.853-2.2-2.2-2.2,2.2-.853-.853,2.2-2.2-2.2-2.2.853-.853,2.2,2.2,2.2-2.2.853.853-2.2,2.2Z" transform="translate(-4.781 -4.781)" fill="#44554c"/>
  </g>
</svg>