<svg xmlns="http://www.w3.org/2000/svg" width="73.143" height="38.355" viewBox="0 0 73.143 38.355">
  <g id="DAK-Gesundheit_logo" style="mix-blend-mode: luminosity;isolation: isolate">
    <path id="path11803" d="M62.487,15.2,72.836,7.277H64.59L57.8,12.936h-2.91V7.277h-5.5V23.123h5.5v-5.66H57.8l6.953,5.66h8.57L62.487,15.2h0m-30.237.484,3.557-7.438,3.4,7.438ZM71.381,0H.235V4.366H32.086L22.549,23.123h6.306L30.31,20.05H40.982l1.779,3.073H48.9L39.368,4.366H71.381V0M17.7,16.17c.031,1.209-.385,2.609-1.456,2.587,0,.022-6.481.022-10.671,0-.037.022.045-7.031,0-6.953H15.758c1.746-.078,1.971.92,1.941,2.264.031.007.031,1.3,0,2.1Zm5.5-2.91c.054-.086.469-5.938-5.983-5.983H.235V23.123c-.037.075,17.72.075,17.787,0C23.25,23.2,23.25,17.392,23.2,17.3a38.64,38.64,0,0,0,0-4.042h0" transform="translate(-0.178)" fill="#ff6501"/>
    <path id="path11823" d="M68.734,108.242v-.871H70.2v-1.887l1.088-.472v2.359h1.851v.871H71.292v5.878c0,1.216.127,1.506,1,1.506a5.431,5.431,0,0,0,.853-.055v.943a9.553,9.553,0,0,1-1.034.055c-1.47,0-1.9-.653-1.9-1.778v-6.55h-1.47m-2.848,8.292v-9.162h1.089v9.162Zm-.127-11.721v-1.379H67.1v1.379H65.758m-3.3,6.5c0-2.032-.326-3.248-2.068-3.248s-2.068,1.215-2.068,3.248Zm-4.136.871v.707c0,1.27.344,2.957,2.068,2.957a1.876,1.876,0,0,0,2.014-2.1h1.143c-.127,2.213-1.325,2.975-3.157,2.975-1.578,0-3.157-.635-3.157-3.411v-2.25c0-2.649,1.107-3.865,3.157-3.865,3.157,0,3.157,2.268,3.157,4.99H58.32m-8.909,4.354v-13.1H50.5V108.5h.036a2.65,2.65,0,0,1,2.213-1.306c2.268,0,2.5,1.687,2.5,2.885v6.459H54.164v-6.4c0-1.071-.417-2.068-1.687-2.068-.98,0-1.978.671-1.978,2.721v5.752H49.411m-3.3-3.756v-1.633c0-.544,0-3.084-2.05-3.084-1.96,0-1.96,1.778-1.96,3.919,0,3.411.817,3.864,2,3.864C45.129,115.844,46.108,115.009,46.108,112.777Zm.055,2.595-.036.018a2.552,2.552,0,0,1-2.322,1.325c-2.649,0-2.794-2.631-2.794-4.772,0-1.76,0-4.753,2.812-4.753a2.827,2.827,0,0,1,2.213,1.089l.036.018v-4.862h1.089v11.285a11.512,11.512,0,0,0,.109,1.814H46.218l-.055-1.161m-11.775,1.161H33.3v-9.162h1.089V108.5h.036a2.65,2.65,0,0,1,2.214-1.306c2.268,0,2.5,1.687,2.5,2.885v6.459H38.053v-6.4c0-1.071-.417-2.068-1.687-2.068-.98,0-1.978.671-1.978,2.721v5.751m-3.375-9.162v9.162H30.07v-1.016h-.036a2.753,2.753,0,0,1-2.3,1.2c-1.887,0-2.413-1.379-2.413-2.866v-6.477H26.4v6.3c0,.254-.055,2.177,1.524,2.177a2.046,2.046,0,0,0,2-2.014v-6.459h1.089m-10.4,9.344c-1.978,0-2.758-.962-2.74-2.9h1.107c0,1.252.29,2.086,1.687,2.086a1.423,1.423,0,0,0,1.56-1.615c0-2.395-4.119-1.778-4.119-4.808,0-1.687,1.161-2.286,2.758-2.286,1.814,0,2.395,1.252,2.395,2.649H22.195c-.054-1.161-.363-1.778-1.6-1.778a1.306,1.306,0,0,0-1.4,1.324c0,2.286,4.119,1.669,4.119,4.736a2.385,2.385,0,0,1-2.7,2.594m-5.5-5.407c0-2.032-.326-3.248-2.068-3.248s-2.068,1.215-2.068,3.248Zm-4.137.871v.707c0,1.27.345,2.957,2.068,2.957a1.876,1.876,0,0,0,2.014-2.1h1.143c-.127,2.213-1.324,2.975-3.157,2.975-1.578,0-3.157-.635-3.157-3.411v-2.25c0-2.649,1.107-3.865,3.157-3.865,3.157,0,3.157,2.268,3.157,4.99H10.982M6.41,110.673H3.761v-.98h3.81v6.549a12.083,12.083,0,0,1-3.61.545c-4.264,0-3.955-4.264-3.955-6.8s-.308-6.8,3.955-6.8c2.5,0,3.792,1.071,3.738,3.611H6.537c0-1.724-.744-2.631-2.576-2.631-2.83,0-2.794,2.522-2.794,5.824s-.036,5.824,2.794,5.824a7,7,0,0,0,2.449-.381v-4.754" transform="translate(0 -78.432)" fill="#ff6501"/>
  </g>
</svg>
