<svg xmlns="http://www.w3.org/2000/svg" width="38" height="38" viewBox="0 0 38 38">
  <g id="Group_7715" data-name="Group 7715" transform="translate(-0.113)" opacity="1">
    <g id="Rectangle_1794" data-name="Rectangle 1794" transform="translate(0.113)" fill="none" stroke="#44554c"
      stroke-width="1.5">
      <rect width="38" height="38" rx="8" stroke="none" />
      <rect x="0.75" y="0.75" width="36.5" height="36.5" rx="7.25" fill="none" />
    </g>
    <path id="Icon_awesome-pencil-alt" data-name="Icon awesome-pencil-alt"
      d="M17.878,5.1,16.222,6.76a.431.431,0,0,1-.61,0L11.627,2.774a.431.431,0,0,1,0-.61L13.282.509a1.727,1.727,0,0,1,2.438,0l2.158,2.158A1.721,1.721,0,0,1,17.878,5.1ZM10.2,3.586.776,13.014.015,17.377a.863.863,0,0,0,1,1l4.362-.765L14.8,8.182a.431.431,0,0,0,0-.61L10.819,3.586a.436.436,0,0,0-.614,0ZM4.457,12.206a.5.5,0,0,1,0-.711L9.986,5.966a.5.5,0,0,1,.711.711L5.167,12.206A.5.5,0,0,1,4.457,12.206Zm-1.3,3.02H4.884v1.3l-2.316.406L1.451,15.818,1.857,13.5h1.3Z"
      transform="translate(9.902 9.655)" fill="#44554c" />
  </g>
</svg>