<svg xmlns="http://www.w3.org/2000/svg" width="36" height="36" viewBox="0 0 36 36">
  <g id="Group_7756" data-name="Group 7756" transform="translate(-508 -675)">
    <rect id="Rectangle_1794" data-name="Rectangle 1794" width="36" height="36" rx="8" transform="translate(508 675)" fill="#F6F8FA"/>
    <path id="Icon_awesome-pencil-alt" data-name="Icon awesome-pencil-alt" d="M15.561,4.444,14.12,5.884a.375.375,0,0,1-.531,0L10.12,2.416a.375.375,0,0,1,0-.531L11.561.444a1.5,1.5,0,0,1,2.122,0l1.878,1.878A1.5,1.5,0,0,1,15.561,4.444ZM8.883,3.122.676,11.328l-.663,3.8a.751.751,0,0,0,.869.869l3.8-.666,8.207-8.207a.375.375,0,0,0,0-.531L9.417,3.122a.379.379,0,0,0-.534,0Zm-5,7.5a.436.436,0,0,1,0-.619L8.692,5.194a.438.438,0,0,1,.619.619L4.5,10.625A.436.436,0,0,1,3.879,10.625ZM2.751,13.254h1.5v1.134l-2.016.353-.972-.972.353-2.016H2.751Z" transform="translate(517.999 684.995)" fill="#44554c"/>
  </g>
</svg>
