<svg xmlns="http://www.w3.org/2000/svg" width="25.999" height="25.999" viewBox="0 0 25.999 25.999">
  <path id="Emoji" d="M13,0A13,13,0,1,0,26,13,13,13,0,0,0,13,0Zm0,24.817A11.818,11.818,0,1,1,24.817,13,11.818,11.818,0,0,1,13,24.817Zm6.352-7.386a.6.6,0,1,1-1.034.591,6.115,6.115,0,0,0-10.636,0,.593.593,0,1,1-1.028-.591,7.3,7.3,0,0,1,12.7,0ZM7.091,8.272A1.182,1.182,0,1,1,8.272,9.454,1.181,1.181,0,0,1,7.091,8.272Zm9.454,0a1.182,1.182,0,1,1,1.182,1.182A1.181,1.181,0,0,1,16.545,8.272Z" fill="#a5b5af"/>
</svg>
