<svg xmlns="http://www.w3.org/2000/svg" width="25.999" height="25.999" viewBox="0 0 25.999 25.999">
  <path id="Emoji" d="M13,0A13,13,0,1,0,26,13,13,13,0,0,0,13,0Zm0,24.817A11.818,11.818,0,1,1,24.817,13,11.818,11.818,0,0,1,13,24.817ZM18.509,14l-.966.162A27.968,27.968,0,0,1,8.027,14.1L7.5,14.007a.845.845,0,0,0-.987.68.865.865,0,0,0,.03.425,6.795,6.795,0,0,0,12.914,0,.852.852,0,0,0-.544-1.078.884.884,0,0,0-.4-.032ZM13,18.583A5.612,5.612,0,0,1,7.87,15.274a29.121,29.121,0,0,0,9.868.05l.39-.065A5.615,5.615,0,0,1,13,18.583Zm1.253-9.646a2.8,2.8,0,0,1,5.182,0,.593.593,0,0,1-1.1.443,1.61,1.61,0,0,0-2.99,0,.59.59,0,1,1-1.093-.443Zm-7.681,0a2.8,2.8,0,0,1,5.182,0,.593.593,0,0,1-1.1.443,1.61,1.61,0,0,0-2.99,0,.59.59,0,1,1-1.093-.443Z" fill="#2ECF96"/>
</svg>
