<svg xmlns="http://www.w3.org/2000/svg" width="25.999" height="25.999" viewBox="0 0 25.999 25.999">
  <path id="Emoji" d="M13,0A13,13,0,1,0,26,13,13,13,0,0,0,13,0Zm0,24.817A11.818,11.818,0,1,1,24.817,13,11.818,11.818,0,0,1,13,24.817ZM7.091,8.863a1.182,1.182,0,1,1,1.182,1.182A1.181,1.181,0,0,1,7.091,8.863Zm9.454,0a1.182,1.182,0,1,1,1.182,1.182A1.181,1.181,0,0,1,16.545,8.863Zm2.91,6.243a6.795,6.795,0,0,1-12.914,0,.59.59,0,0,1,1.1-.431.509.509,0,0,1,.021.062,5.613,5.613,0,0,0,10.674,0,.59.59,0,0,1,1.12.369Z" fill="#a5b5af"/>
</svg>
