<svg xmlns="http://www.w3.org/2000/svg" width="25.999" height="25.999" viewBox="0 0 25.999 25.999">
  <path id="Emoji" d="M13,0A13,13,0,1,0,26,13,13,13,0,0,0,13,0Zm0,24.817A11.818,11.818,0,1,1,24.817,13,11.818,11.818,0,0,1,13,24.817ZM20.072,19.2a.592.592,0,0,1-1.146.3,6.122,6.122,0,0,0-11.853,0,.591.591,0,0,1-.573.449.613.613,0,0,1-.148-.018.592.592,0,0,1-.428-.718s0-.006,0-.009a7.306,7.306,0,0,1,14.146,0ZM5.613,9.75a.59.59,0,1,1,1.093-.443,2.006,2.006,0,0,0,3.723,0,.591.591,0,0,1,1.09.443,3.188,3.188,0,0,1-5.906,0Zm14.772,0a3.191,3.191,0,0,1-5.909,0,.59.59,0,1,1,1.093-.443,2.006,2.006,0,0,0,3.723,0,.592.592,0,0,1,1.093.443Z" fill="#2ECF96"/>
</svg>
