<svg xmlns="http://www.w3.org/2000/svg" width="25.999" height="25.999" viewBox="0 0 25.999 25.999">
  <path id="Emoji" d="M13,0A13,13,0,1,0,26,13,13,13,0,0,0,13,0Zm0,24.817A11.818,11.818,0,1,1,24.817,13,11.818,11.818,0,0,1,13,24.817Zm-4.432-12.7a1.182,1.182,0,1,1,1.182-1.182A1.181,1.181,0,0,1,8.568,12.113Zm10.045-1.182a1.182,1.182,0,1,1-1.182-1.182A1.181,1.181,0,0,1,18.613,10.931Zm-.591,6.8a.593.593,0,0,1-.591.591H8.568a.591.591,0,0,1,0-1.182h8.863A.593.593,0,0,1,18.022,17.726Z" fill="#2ECF96"/>
</svg>
