<svg xmlns="http://www.w3.org/2000/svg" width="18.431" height="35.915" viewBox="0 0 18.431 35.915">
  <g id="Icon_awesome-female" data-name="Icon awesome-female" transform="translate(0.939 1.5)" fill="none" opacity="0.5">
    <path d="M8.277,0A4.114,4.114,0,1,1,4.163,4.114,4.114,4.114,0,0,1,8.277,0m7.668,22.769L12.859,10.426a1.543,1.543,0,0,0-1.5-1.169h-.73a5.65,5.65,0,0,1-4.711,0h-.73a1.543,1.543,0,0,0-1.5,1.169L.609,22.769a1.543,1.543,0,0,0,1.5,1.917h3.6v6.686a1.543,1.543,0,0,0,1.543,1.543H9.305a1.543,1.543,0,0,0,1.543-1.543V24.686h3.6A1.543,1.543,0,0,0,15.945,22.769Z" stroke="none"/>
    <path d="M 8.276904106140137 0 C 6.004604339599609 0 4.162524223327637 1.842079162597656 4.162524223327637 4.1143798828125 C 4.162524223327637 6.386678695678711 6.004604339599609 8.228759765625 8.276904106140137 8.228759765625 C 10.5491943359375 8.228759765625 12.39128398895264 6.386678695678711 12.39128398895264 4.1143798828125 C 12.39128398895264 1.842079162597656 10.5491943359375 0 8.276904106140137 0 M 5.191113471984863 9.257349014282227 C 4.483174324035645 9.257349014282227 3.866044044494629 9.739179611206055 3.694323539733887 10.42601013183594 L 0.6085338592529297 22.76916885375977 C 0.3653945922851562 23.74157905578613 1.101353645324707 24.686279296875 2.105334281921387 24.686279296875 L 5.705413818359375 24.686279296875 L 5.705413818359375 31.37215042114258 C 5.705413818359375 32.22426986694336 6.396183967590332 32.9150390625 7.248303413391113 32.9150390625 L 9.30549430847168 32.9150390625 C 10.15762329101562 32.9150390625 10.84838390350342 32.22426986694336 10.84838390350342 31.37215042114258 L 10.84838390350342 24.686279296875 L 14.44847393035889 24.686279296875 C 15.45077419281006 24.686279296875 16.18879318237305 23.74311828613281 15.94526386260986 22.76916885375977 L 12.85948371887207 10.42602920532227 C 12.68777370452881 9.739198684692383 12.07065391540527 9.257369995117188 11.36268424987793 9.257349014282227 L 10.63238334655762 9.257349014282227 C 9.172354698181152 9.9287109375 7.44438362121582 9.957696914672852 5.92142391204834 9.257349014282227 L 5.191113471984863 9.257349014282227 M 8.276904106140137 -1.5 C 11.37268447875977 -1.5 13.89128398895264 1.018600463867188 13.89128398895264 4.1143798828125 C 13.89128398895264 5.588390350341797 13.32032680511475 6.931526184082031 12.38792991638184 7.934276580810547 C 13.32517528533936 8.268833160400391 14.06217479705811 9.052150726318359 14.31469345092773 10.06221961975098 L 17.40047454833984 22.40536880493164 C 17.62927436828613 23.32038879394531 17.42744445800781 24.27180862426758 16.84673309326172 25.01560020446777 C 16.26587295532227 25.75957870483398 15.39174365997314 26.186279296875 14.44847393035889 26.186279296875 L 12.34838390350342 26.186279296875 L 12.34838390350342 31.37215042114258 C 12.34838390350342 33.05001068115234 10.98335456848145 34.4150390625 9.30549430847168 34.4150390625 L 7.248303413391113 34.4150390625 C 5.570444107055664 34.4150390625 4.205413818359375 33.05001068115234 4.205413818359375 31.37215042114258 L 4.205413818359375 26.186279296875 L 2.105334281921387 26.186279296875 C 1.162043571472168 26.186279296875 0.2879829406738281 25.75968933105469 -0.2927265167236328 25.01589965820312 C -0.8735752105712891 24.27193832397461 -1.075475692749023 23.32041931152344 -0.8466663360595703 22.40530967712402 L 2.239113807678223 10.06221008300781 C 2.491634368896484 9.05218505859375 3.228744506835938 8.268844604492188 4.165863990783691 7.934261322021484 C 3.233467102050781 6.931512832641602 2.662524223327637 5.588390350341797 2.662524223327637 4.1143798828125 C 2.662524223327637 1.018600463867188 5.181123733520508 -1.5 8.276904106140137 -1.5 Z" stroke="none" fill="#1c9d87"/>
  </g>
</svg>
