<svg xmlns="http://www.w3.org/2000/svg" xmlns:xlink="http://www.w3.org/1999/xlink" width="549.977" height="254.197" viewBox="0 0 549.977 254.197">
  <defs>
    <linearGradient id="linear-gradient" y1="0.5" x2="1" y2="0.5" gradientUnits="objectBoundingBox">
      <stop offset="0" stop-color="#37e3a8"/>
      <stop offset="1" stop-color="#1c9d87"/>
    </linearGradient>
  </defs>
  <g id="Gruppe_36358" data-name="Gruppe 36358" transform="translate(12196 -9330)">
    <g id="Gruppe_36357" data-name="Gruppe 36357" transform="translate(-12320.927 9117.429)">
      <g id="Gruppe_180" data-name="Gruppe 180" transform="translate(244.19 316.759)">
        <g id="Gruppe_179" data-name="Gruppe 179" transform="translate(0 0)">
          <path id="Pfad_650" data-name="Pfad 650" d="M213.7,342.569a28.7,28.7,0,0,1-9.184-6.193,28.255,28.255,0,0,1-6.22-9.152,28.492,28.492,0,0,1,0-22.1,29.022,29.022,0,0,1,15.4-15.431,28.593,28.593,0,0,1,22.067.027,28.773,28.773,0,0,1,9.184,6.165,29.446,29.446,0,0,1,6.161,9.24,28.586,28.586,0,0,1,.032,22.069,28.813,28.813,0,0,1-15.378,15.344,28.581,28.581,0,0,1-22.067.032ZM229.75,328.1a12.717,12.717,0,0,0,4.166-2.76,13.127,13.127,0,0,0,2.817-4.166,12.977,12.977,0,0,0,0-9.979,13.2,13.2,0,0,0-2.817-4.165,12.742,12.742,0,0,0-4.166-2.76,13.1,13.1,0,0,0-5.05-1,12.961,12.961,0,0,0-9.1,3.757,13.538,13.538,0,0,0-2.845,4.165,12.624,12.624,0,0,0,0,9.979,13.464,13.464,0,0,0,2.845,4.166,12.964,12.964,0,0,0,9.1,3.757A13.1,13.1,0,0,0,229.75,328.1Z" transform="translate(-196.062 -266.069)" fill="#fff"/>
          <path id="Pfad_651" data-name="Pfad 651" d="M255.242,342.569a28.7,28.7,0,0,1-9.184-6.193,28.316,28.316,0,0,1-6.222-9.152,28.532,28.532,0,0,1,0-22.1,29.032,29.032,0,0,1,15.406-15.431,28.593,28.593,0,0,1,22.067.027,28.77,28.77,0,0,1,9.184,6.165,29.441,29.441,0,0,1,6.161,9.24,28.585,28.585,0,0,1,.032,22.069,28.813,28.813,0,0,1-15.377,15.344,28.581,28.581,0,0,1-22.067.032ZM271.295,328.1a12.717,12.717,0,0,0,4.166-2.76,13.1,13.1,0,0,0,2.817-4.166,12.977,12.977,0,0,0,0-9.979,13.169,13.169,0,0,0-2.817-4.165,12.743,12.743,0,0,0-4.166-2.76,13.09,13.09,0,0,0-5.05-1,12.953,12.953,0,0,0-9.1,3.757A13.515,13.515,0,0,0,254.3,311.2a12.625,12.625,0,0,0,0,9.979,13.441,13.441,0,0,0,2.847,4.166,12.955,12.955,0,0,0,9.1,3.757A13.092,13.092,0,0,0,271.295,328.1Z" transform="translate(-167.952 -266.069)" fill="#fff"/>
          <path id="Pfad_652" data-name="Pfad 652" d="M296.786,350.977a28.716,28.716,0,0,1-9.184-6.193,28.279,28.279,0,0,1-6.22-9.152,28.512,28.512,0,0,1,0-22.1,29.021,29.021,0,0,1,15.4-15.431,27.885,27.885,0,0,1,11-2.2,21.856,21.856,0,0,1,8.014,1.231,11.694,11.694,0,0,1,5.016,3.755V283.162a8.114,8.114,0,0,1,2.228-5.809,7.277,7.277,0,0,1,5.516-2.287,7.972,7.972,0,0,1,5.576,2.287,8.473,8.473,0,0,1,1.673,2.612,8.321,8.321,0,0,1,.617,3.2V324.6a27.983,27.983,0,0,1-2.2,11.005,28.812,28.812,0,0,1-15.378,15.344,28.581,28.581,0,0,1-22.067.032Zm16.053-14.466a12.717,12.717,0,0,0,4.166-2.759,13.07,13.07,0,0,0,2.817-4.167,12.974,12.974,0,0,0,0-9.979,13.137,13.137,0,0,0-2.817-4.165,12.741,12.741,0,0,0-4.166-2.76,13.089,13.089,0,0,0-5.05-1,12.954,12.954,0,0,0-9.1,3.757,13.544,13.544,0,0,0-2.847,4.165,12.626,12.626,0,0,0,0,9.979,13.472,13.472,0,0,0,2.847,4.167,12.956,12.956,0,0,0,9.1,3.757A13.091,13.091,0,0,0,312.839,336.511Z" transform="translate(-139.844 -274.476)" fill="#fff"/>
          <path id="Pfad_653" data-name="Pfad 653" d="M326.547,288.916a8.753,8.753,0,0,1-1.848-2.7,7.73,7.73,0,0,1-.677-3.165,8.1,8.1,0,0,1,2.525-5.928,7.989,7.989,0,0,1,5.868-2.409,8.527,8.527,0,0,1,3.229.619,8.3,8.3,0,0,1,2.7,13.584,8.388,8.388,0,0,1-2.7,1.821,8.2,8.2,0,0,1-3.229.649A8.006,8.006,0,0,1,326.547,288.916Zm2.847,63.881a8.317,8.317,0,0,1-4.257-4.166,7.143,7.143,0,0,1-.642-2.964V303.882a7.165,7.165,0,0,1,.642-2.963,7.809,7.809,0,0,1,1.762-2.495,7.715,7.715,0,0,1,2.553-1.67,8.016,8.016,0,0,1,3.082-.617,7.467,7.467,0,0,1,2.964.617,7.891,7.891,0,0,1,2.492,1.67,7.226,7.226,0,0,1,1.614,2.466,8.083,8.083,0,0,1,.558,2.991v41.785a7.444,7.444,0,0,1-.617,2.964,7.818,7.818,0,0,1-4.14,4.166,7.343,7.343,0,0,1-2.991.617A7.556,7.556,0,0,1,329.394,352.8Z" transform="translate(-109.487 -274.714)" fill="#fff"/>
          <path id="Pfad_654" data-name="Pfad 654" d="M360.8,342.569a28.71,28.71,0,0,1-9.186-6.193,28.287,28.287,0,0,1-6.22-9.152,28.51,28.51,0,0,1,0-22.1A29.016,29.016,0,0,1,360.8,289.693a28.422,28.422,0,0,1,31.074,6.074,28.82,28.82,0,0,1,8.569,19.949v21.071a7.661,7.661,0,0,1-2.29,5.635,8.008,8.008,0,0,1-5.69,2.346,7.355,7.355,0,0,1-6.574-3.7,28.533,28.533,0,0,1-14.085,3.7A27.874,27.874,0,0,1,360.8,342.569ZM376.852,328.1a12.682,12.682,0,0,0,4.166-2.76,13.132,13.132,0,0,0,2.818-4.166,12.975,12.975,0,0,0,0-9.979,13.2,13.2,0,0,0-2.818-4.165,12.708,12.708,0,0,0-4.166-2.76,13.084,13.084,0,0,0-5.048-1,12.96,12.96,0,0,0-9.1,3.757,13.509,13.509,0,0,0-2.844,4.165,12.607,12.607,0,0,0,0,9.979,13.434,13.434,0,0,0,2.844,4.166,12.963,12.963,0,0,0,9.1,3.757A13.087,13.087,0,0,0,376.852,328.1Z" transform="translate(-96.534 -266.069)" fill="#fff"/>
          <path id="Pfad_655" data-name="Pfad 655" d="M392.792,343.535a7.4,7.4,0,0,1-2.525-1.641,7.865,7.865,0,0,1-1.76-2.464,7.115,7.115,0,0,1-.646-2.993V316.715a29.3,29.3,0,0,1,2.553-11.178A30.479,30.479,0,0,1,406.261,289.9a29.524,29.524,0,0,1,11.236-2.406h.468a8.063,8.063,0,0,1,5.959,2.141,8.093,8.093,0,0,1-.2,11.183,8.077,8.077,0,0,1-2.612,1.641,8.544,8.544,0,0,1-3.142.587h-.352a13.793,13.793,0,0,0-5.4,1.175,14.026,14.026,0,0,0-4.462,3.109,14.59,14.59,0,0,0-3.108,4.575,14.292,14.292,0,0,0-1.175,5.461v19.073a7.836,7.836,0,0,1-.587,3.052,6.967,6.967,0,0,1-1.645,2.406,7.341,7.341,0,0,1-5.4,2.231A8.073,8.073,0,0,1,392.792,343.535Z" transform="translate(-66.295 -266.069)" fill="#fff"/>
          <path id="Pfad_656" data-name="Pfad 656" d="M465.447,362.495a7.988,7.988,0,0,1-2.466-1.673,7.5,7.5,0,0,1-2.228-5.516V340.224a23.268,23.268,0,0,1-13.381,4.4,28.433,28.433,0,0,1-11.24-2.26A29.517,29.517,0,0,1,420.464,326.7a28.552,28.552,0,0,1-2.26-11.3V294.154a7.993,7.993,0,0,1,.617-3.08,7.693,7.693,0,0,1,1.67-2.555,7.535,7.535,0,0,1,5.519-2.287,7.811,7.811,0,0,1,3.052.617,8.425,8.425,0,0,1,2.58,1.67,7.7,7.7,0,0,1,1.673,2.555,7.989,7.989,0,0,1,.617,3.08V315.4a12.752,12.752,0,0,0,1.058,5.132,13.825,13.825,0,0,0,2.932,4.317,14.3,14.3,0,0,0,4.312,2.963,12.5,12.5,0,0,0,10.185,0,14.162,14.162,0,0,0,4.341-2.963,13.833,13.833,0,0,0,2.936-4.317,12.744,12.744,0,0,0,1.056-5.132V294.154a8.019,8.019,0,0,1,.614-3.08,7.7,7.7,0,0,1,1.675-2.555,7.769,7.769,0,0,1,8.539-1.67,8.52,8.52,0,0,1,2.552,1.67,8.063,8.063,0,0,1,1.7,2.555,7.726,7.726,0,0,1,.645,3.08v61.152a7.456,7.456,0,0,1-.614,2.994,8.2,8.2,0,0,1-1.733,2.522,8.4,8.4,0,0,1-2.61,1.673,8,8,0,0,1-3.083.617A7.346,7.346,0,0,1,465.447,362.495Z" transform="translate(-45.766 -266.921)" fill="#fff"/>
        </g>
      </g>
      <path id="Pfad_657" data-name="Pfad 657" d="M224.628,466.769c-.406-.771-6.086-2.153-6.951-2.535a167.923,167.923,0,0,1-17.408-9.164c-34.018-19.938-64.3-53.511-71.87-93.25-3.972-20.845-5.747-43.99,1.391-64.322,6.586-18.751,19.225-35.847,33.832-49.161a151.02,151.02,0,0,1,26.088-19.212c12.747-7.286,27.41-12.653,41.559-16.555-9.956,2.748-21.593,10.74-29.64,16.845-30.93,23.462-57.8,55.994-51.479,97.015,1.615,10.395,6.423,23.771,17.71,27.94,13.144,4.854,23.9-7.105,31.887-15.753,10.467-11.374,21.241-22.483,34-31.325,6.108-4.232,14.236-6.3,19.846-10.822-25.809,37.562-45.774,85.893-40.474,132.274C214.582,441.5,218.5,455.418,224.628,466.769Z" transform="translate(0 0)" fill="url(#linear-gradient)"/>
      <path id="Pfad_658" data-name="Pfad 658" d="M195.592,289.47c-8.289,16.191-24.969,24.221-37.264,17.934s-15.572-24.508-7.3-40.7c8.287-16.189,24.969-24.223,37.264-17.939S203.855,273.276,195.592,289.47Z" transform="translate(14.568 23.043)" fill="url(#linear-gradient)"/>
    </g>
  </g>
</svg>
