<svg xmlns="http://www.w3.org/2000/svg" width="31.728" height="29.798" viewBox="0 0 31.728 29.798">
  <g id="Group_1758" data-name="Group 1758" transform="translate(-243.743 -9.802)" opacity="0.5">
    <g id="Group_1757" data-name="Group 1757" transform="translate(244 10.067)">
      <path id="Path_4011" data-name="Path 4011" d="M272.674,34.022l-.34-.078c3.291-2.7,3.993-8.684.893-11.8a7.3,7.3,0,0,1-1.906-5.08c0-2.872-1.889-5.208-4.211-5.208s-4.212,2.337-4.212,5.208a8.2,8.2,0,0,1-.224,1.907,5.98,5.98,0,0,0-7.9-1.187V11.924a.46.46,0,1,0-.92,0v1.806c-1.373-2.478-3.873-3.141-6.671-2.577a.461.461,0,0,0-.335.625,10.771,10.771,0,0,0,1.842,2.863,4.978,4.978,0,0,0,5.164,1.764v1.376c-2.7-1.877-7.223-1.2-9.081,3.076a.46.46,0,0,0,.844.366c1.7-3.915,5.766-4.232,7.922-2.533a1.2,1.2,0,0,0,1.55,0c2.455-1.934,6.7-1.092,8.156,3.138a8.488,8.488,0,0,1-.732,7.126c-.54.966-.984,1.769-1.351,2.438-2.848-.613-3.254-.838-4.224-.817a.46.46,0,0,0,.019.919,3.946,3.946,0,0,1,.556.029L257.242,34a.46.46,0,1,0,.914.1l.267-2.394,4.457,1.019-.131,1.181a.46.46,0,1,0,.914.1l.12-1.077,6.893,1.575L270.32,37.7a.46.46,0,1,0,.914.1l.344-3.084.892.2a2.218,2.218,0,0,1-.489,4.381l-4.707.009.167-1.5a.46.46,0,1,0-.914-.1l-.179,1.6-4.511.009.157-1.41a.46.46,0,0,0-.914-.1c-.039.351-.164,1.476-.168,1.513l-2.16,0,.273-2.454a.46.46,0,0,0-.914-.1l-.285,2.557h-.778a3.916,3.916,0,0,1-1.674-7.456.46.46,0,0,0-.394-.831,4.823,4.823,0,0,0-2.1,1.917,5.722,5.722,0,0,1-2.563-2.27,1.517,1.517,0,0,0-2.857.7l-1.441-2.62a8.466,8.466,0,0,1-.919-5.887.46.46,0,1,0-.9-.186,9.385,9.385,0,0,0,1.014,6.517l1.965,3.571-1.44-.161a1.517,1.517,0,0,0-.336,3.015l2.384.265c-.591.529-1.067,1.009-1.007,1.765a1.519,1.519,0,0,0,2.664.868,5.727,5.727,0,0,1,3-1.652,4.842,4.842,0,0,0,4.607,3.361l14.934-.029a3.138,3.138,0,0,0,.692-6.2ZM247.955,11.954c3.058-.418,4.986,1.04,5.63,3.572-2.491.671-4.45-1.3-5.63-3.572ZM271.135,33.67,262.1,31.606c.261-.478.55-1.006.873-1.587a4.913,4.913,0,0,0,9.071-1.489.46.46,0,0,0-.9-.18,3.994,3.994,0,0,1-7.626.691,9.5,9.5,0,0,0,1.118-4.515,4,4,0,0,1,6.5,2.186.46.46,0,1,0,.9-.195,4.913,4.913,0,0,0-7.467-3.081,9.052,9.052,0,0,0-1.2-3.518,9.088,9.088,0,0,0,.451-2.856c0-2.122,1.322-4.289,3.292-4.289,1.949,0,3.292,2.138,3.292,4.289a8.125,8.125,0,0,0,2.173,5.728c2.395,2.408,2.163,6.879.083,9.513a5.725,5.725,0,0,1-1.522,1.367Zm-18.89,2.311a6.676,6.676,0,0,0-3.5,1.96.6.6,0,1,1-.907-.776,6.354,6.354,0,0,1,1.39-1.2.46.46,0,0,0-.2-.843l-3.525-.393a.6.6,0,1,1,.132-1.186h.017l3.185.355c.146-.009.592.18.787-.219a.46.46,0,0,0-.085-.524,6.351,6.351,0,0,1-1.091-1.479.6.6,0,0,1,.249-.807h0a.6.6,0,0,1,.806.25,6.659,6.659,0,0,0,2.989,2.669,4.891,4.891,0,0,0-.247,2.194Zm0,0" transform="translate(-244 -10.965)" fill="#1c9d87" stroke="#1c9d87" stroke-width="0.5"/>
    </g>
  </g>
</svg>
