<svg xmlns="http://www.w3.org/2000/svg" width="89.845" height="85.925" viewBox="0 0 89.845 85.925">
  <g id="Gruppe_7683" data-name="Gruppe 7683" transform="translate(0 0)">
    <path id="Pfad_12161" data-name="Pfad 12161" d="M.754,36.55C-1.2,24.828-.543,5.421,17.418,4.692S36.41-2.549,48.424,1.106,71.433,33.874,67.311,51.192C65.1,60.474,44.645,77.856,27.779,73.1,13.255,69.012,1.975,43.891.754,36.55Z" transform="translate(18.797 85.925) rotate(-106)" fill="#d1ebe7"/>
    <path id="mobile" d="M12,3H24a3,3,0,0,1,3,3V30a3,3,0,0,1-3,3H12a3,3,0,0,1-3-3V6a3,3,0,0,1,3-3Zm0,3V28.5H24V6Z" transform="translate(27.422 24.925)" fill="#1c9d87"/>
  </g>
</svg>
