<svg xmlns="http://www.w3.org/2000/svg" xmlns:xlink="http://www.w3.org/1999/xlink" width="24.382" height="24.438" viewBox="0 0 24.382 24.438">
  <defs>
    <clipPath id="clip-path">
      <rect id="Rechteck_11509" data-name="Rechteck 11509" width="24.382" height="24.438" fill="none"/>
    </clipPath>
  </defs>
  <g id="Gruppe_36395" data-name="Gruppe 36395" clip-path="url(#clip-path)">
    <path id="Pfad_47055" data-name="Pfad 47055" d="M24.294,63.06a.456.456,0,0,0-.37-.188,5,5,0,0,1-3.074-1.354c-.212-.157-.425-.315-.644-.468a6.11,6.11,0,0,0-3.645-1.261c-.683,0-1.24.006-1.687.02H11.426a1.37,1.37,0,0,0,0,2.74h3.2a.911.911,0,0,1,.3,1.669l-1.189.315c-.407.1-.821.207-1.216.322l-.086.022c-2.216.586-2.961.779-3.177.831A1.4,1.4,0,0,1,9,65.7L3.982,62.447l-.914-.661a.463.463,0,0,0-.054-.033c-.045-.028-.094-.055-.144-.08a1.772,1.772,0,0,0-.293-.12,1.9,1.9,0,0,0-.241-.053,1.7,1.7,0,0,0-.6.01A1.916,1.916,0,0,0,.562,64.772l.024.025a2,2,0,0,0,.433.32l8.318,6.03a.45.45,0,0,0,.128.065l.068.027.022.008a2.123,2.123,0,0,0,1.15.084l.029-.006.036-.009c5.271-1.342,9.046-2.295,10.918-2.755a.521.521,0,0,0,.052-.016l.164-.061a9.682,9.682,0,0,1,2.014-.347.457.457,0,0,0,.457-.457v-.3a.428.428,0,0,0,.007-.085l-.007-3.882a.454.454,0,0,0-.081-.347m-.831,4.189a13.847,13.847,0,0,0-1.807.353c-.016,0-.039.012-.055.017l-.157.059c-1.882.464-5.65,1.415-10.9,2.752l-.025.006a1.226,1.226,0,0,1-.656-.052l-8.33-6.026a.439.439,0,0,0-.059-.037,1.052,1.052,0,0,1-.243-.176l-.013-.013a.993.993,0,0,1-.3-.711,1.006,1.006,0,0,1,.929-1,.4.4,0,0,0,.053-.008.808.808,0,0,1,.3-.006.96.96,0,0,1,.118.025.944.944,0,0,1,.145.061.9.9,0,0,1,.086.049l.019.012.892.645.019.013,5.1,3.305a.461.461,0,0,0,.139.06,2.149,2.149,0,0,0,.634.048.477.477,0,0,0,.08-.011c.231-.054,1.322-.339,3.239-.847l.1-.025q.593-.172,1.2-.318l1.26-.334a.482.482,0,0,0,.1-.041,1.825,1.825,0,0,0-.587-3.4.468.468,0,0,0-.074-.006H11.426a.456.456,0,0,1,0-.912h3.461c.452-.013,1-.019,1.674-.019a5.193,5.193,0,0,1,3.122,1.1c.212.148.419.3.623.453a6.328,6.328,0,0,0,3.155,1.51v3.014l.006.447c0,.008,0,.017,0,.026" transform="translate(0 -46.936)" fill="#fff"/>
    <path id="Pfad_47056" data-name="Pfad 47056" d="M24.929.471V.447A.457.457,0,0,0,24.5,0h-.048a7.736,7.736,0,0,0-7.162,4.81A6.272,6.272,0,0,0,15.533,1.4c-.033-.033-.066-.062-.1-.092l-.044-.039a.469.469,0,0,0-.616-.009.307.307,0,0,0-.029.027A6.294,6.294,0,0,0,14.5,9.918l.017.019-2.78,2.779.476.477L15,10.41l.02.017a6.292,6.292,0,0,0,8.629-.241l.022-.023a.477.477,0,0,0,0-.629c-.007-.008-.014-.016-.022-.023a6.268,6.268,0,0,0-3.7-1.8A7.7,7.7,0,0,0,24.929.471M22.664,9.848a5.379,5.379,0,0,1-7.04-.1l-.067-.057c-.014-.012-.029-.023-.04-.034s-.046-.043-.071-.064-.036-.031-.067-.063-.084-.091-.125-.138l-.071-.081a5.381,5.381,0,0,1-.094-7.05A5.373,5.373,0,0,1,15.51,8.9a.457.457,0,0,0,.636.635,5.373,5.373,0,0,1,6.518.315M17.635,7.29a7.209,7.209,0,0,1,.1-.785h0A6.82,6.82,0,0,1,24,.929a6.788,6.788,0,0,1-6.366,6.36" transform="translate(-9.215 -0.001)" fill="#fff"/>
  </g>
</svg>
