<svg id="Gruppe_2561" data-name="Gruppe 2561" xmlns="http://www.w3.org/2000/svg" xmlns:xlink="http://www.w3.org/1999/xlink" width="35.515" height="33.921" viewBox="0 0 35.515 33.921">
  <defs>
    <clipPath id="clip-path">
      <rect id="Rechteck_1536" data-name="Rechteck 1536" width="35.515" height="33.921" fill="#8ccdc1"/>
    </clipPath>
  </defs>
  <path id="Pfad_15303" data-name="Pfad 15303" d="M79.738,77.129l-.619-2.777-2.772.641.619,2.777Z" transform="translate(-53.891 -52.483)" fill="#8ccdc1"/>
  <path id="Pfad_15304" data-name="Pfad 15304" d="M68.246,38.642l.532,2.394,2.773-.643L71.018,38Z" transform="translate(-48.173 -26.824)" fill="#8ccdc1"/>
  <path id="Pfad_15305" data-name="Pfad 15305" d="M73.29,61.264l.667,2.992,2.773-.642-.668-2.991Z" transform="translate(-51.733 -42.792)" fill="#8ccdc1"/>
  <path id="Pfad_15306" data-name="Pfad 15306" d="M80.243,90.125l1.751-2.753-2.746.637.5,2.231Z" transform="translate(-55.939 -61.673)" fill="#8ccdc1"/>
  <path id="Pfad_15307" data-name="Pfad 15307" d="M71.33,52.5l2.773-.641-.484-2.169-2.772.641Z" transform="translate(-50.009 -35.076)" fill="#8ccdc1"/>
  <g id="Gruppe_2557" data-name="Gruppe 2557" transform="translate(0 0)">
    <g id="Gruppe_2556" data-name="Gruppe 2556" transform="translate(0 0)" clip-path="url(#clip-path)">
      <path id="Pfad_15308" data-name="Pfad 15308" d="M66.51,31.849l.276,1.24,2.772-.641-.17-.759a7.374,7.374,0,0,0-2.879.161" transform="translate(-46.947 -22.315)" fill="#8ccdc1"/>
      <path id="Pfad_15309" data-name="Pfad 15309" d="M83.816,47.636,84.3,49.8l2.23-.516-.483-2.169Z" transform="translate(-59.164 -33.26)" fill="#8ccdc1"/>
      <path id="Pfad_15310" data-name="Pfad 15310" d="M86.924,61.552l2.229-.517-.669-2.991-2.227.517Z" transform="translate(-60.887 -40.972)" fill="#8ccdc1"/>
      <path id="Pfad_15311" data-name="Pfad 15311" d="M89.314,72.293l.617,2.761,1.734-2.731-.121-.545Z" transform="translate(-63.044 -50.666)" fill="#8ccdc1"/>
      <path id="Pfad_15312" data-name="Pfad 15312" d="M82.852,35.887l-1.639.379.534,2.394,2.23-.517-.4-1.794Z" transform="translate(-57.326 -25.332)" fill="#8ccdc1"/>
      <path id="Pfad_15313" data-name="Pfad 15313" d="M80.286,33.02l.377-.087c-.145-.053-.286-.117-.432-.162Z" transform="translate(-56.633 -23.131)" fill="#8ccdc1"/>
      <path id="Pfad_15314" data-name="Pfad 15314" d="M68.063,102.381h2.122a7.557,7.557,0,0,0,.861-.7l-.038-.179-2.986.689Z" transform="translate(-48.015 -71.651)" fill="#8ccdc1"/>
      <path id="Pfad_15315" data-name="Pfad 15315" d="M96.715,47.7a7.327,7.327,0,0,0-.922-2.064l-.843.195L95.435,48Z" transform="translate(-67.023 -32.214)" fill="#8ccdc1"/>
      <path id="Pfad_15316" data-name="Pfad 15316" d="M93.848,41.348l.36-.082c-.156-.173-.317-.338-.489-.5Z" transform="translate(-66.153 -28.778)" fill="#8ccdc1"/>
      <path id="Pfad_15317" data-name="Pfad 15317" d="M97.384,56.531l.667,2.992.254-.059a7.276,7.276,0,0,0,.331-3.221Z" transform="translate(-68.74 -39.7)" fill="#8ccdc1"/>
      <path id="Pfad_15318" data-name="Pfad 15318" d="M73.533,11.316a11.272,11.272,0,0,0-2.212-1.095c-.263-.094-.534-.174-.809-.247.126,0,.255.012.379.012a11.48,11.48,0,0,0,2.452-.275,11.354,11.354,0,0,0,2.34-.79,7.734,7.734,0,0,0,2.185-1.474,7.811,7.811,0,0,0-2.605-.406,11.4,11.4,0,0,0-2.452.278,11.725,11.725,0,0,0-2.339.792c-.11.055-.221.114-.331.169.09-.084.184-.166.272-.253A11.505,11.505,0,0,0,71.953,6.1a11.216,11.216,0,0,0,1.094-2.211,7.739,7.739,0,0,0,.5-2.588,7.771,7.771,0,0,0-2.129,1.554,11.415,11.415,0,0,0-1.538,1.932A11.717,11.717,0,0,0,68.792,7c-.041.118-.076.237-.113.354,0-.124.01-.247.011-.37a11.591,11.591,0,0,0-.276-2.454,11.333,11.333,0,0,0-.788-2.339A7.8,7.8,0,0,0,66.15,0a7.807,7.807,0,0,0-.405,2.605,11.161,11.161,0,0,0,.278,2.453A11.646,11.646,0,0,0,66.815,7.4c.052.112.114.219.169.331-.084-.091-.166-.184-.253-.273A11.619,11.619,0,0,0,64.8,5.916a11.3,11.3,0,0,0-2.212-1.1A7.812,7.812,0,0,0,60,4.318a7.778,7.778,0,0,0,1.554,2.131,11.29,11.29,0,0,0,1.93,1.536A11.521,11.521,0,0,0,65.7,9.078a7.891,7.891,0,0,0,2.585.505c.161.056.313.1.471.137h-.025a7.755,7.755,0,0,0,1.553,2.128,11.344,11.344,0,0,0,1.932,1.537,11.464,11.464,0,0,0,2.213,1.093,7.827,7.827,0,0,0,2.586.505,7.861,7.861,0,0,0-1.556-2.127,11.527,11.527,0,0,0-1.928-1.542" transform="translate(-42.354 -0.001)" fill="#8ccdc1"/>
      <path id="Pfad_15319" data-name="Pfad 15319" d="M18.045,50.152a9.919,9.919,0,0,0,1.564-2.057l.167.747,2.984-.69-.5-2.233-1.877.435a9.013,9.013,0,0,0,.3-1.17l1.347-.314-.621-2.777-.653.152a9.357,9.357,0,0,0-.2-1.052l.625-.144-.667-2.992-1.229.285a9.831,9.831,0,0,0-.7-.939l1.7-.394-.485-2.166-2.71.628a7.661,7.661,0,0,0,.056-.871c0-.081-.007-.16-.011-.242l2.431-.563L19.028,31.4l-2.352.544a7.667,7.667,0,0,0-.45-1l2.567-.594-.254-1.139a7.281,7.281,0,0,0-2.364,1.633A6.724,6.724,0,0,0,11.333,27.4a3.658,3.658,0,0,1-.907,1.194c-.453-.438-.81-.814-1.117-1.159a7.122,7.122,0,0,0-5.6,7.161,7.964,7.964,0,0,0,.116,1.326A9.546,9.546,0,0,0,0,43.494a9.424,9.424,0,0,0,2.8,6.658Z" transform="translate(0 -19.341)" fill="#8ccdc1"/>
      <path id="Pfad_15320" data-name="Pfad 15320" d="M25.014,12.306a4.014,4.014,0,0,0,.221-.591c-.014,0-.026-.006-.039-.011a2.462,2.462,0,0,1,.21-.871,4.6,4.6,0,0,0-.67-2.756A4.373,4.373,0,0,0,22.36,6.182a3.35,3.35,0,0,0-2.978.426c.562.982.936,1.621,1.207,2.177s.471.963.74,1.392a16.165,16.165,0,0,0,1.023,1.416c.191.234.4.482.638.747a6.2,6.2,0,0,1,1.117-.11,6.307,6.307,0,0,1,.907.076" transform="translate(-13.681 -4.244)" fill="#8ccdc1"/>
      <path id="Pfad_15321" data-name="Pfad 15321" d="M39.28,19.128a6.082,6.082,0,0,0,1.567.252,3.757,3.757,0,0,0,1.191-.179,3.7,3.7,0,0,0,1.057-.56,5.842,5.842,0,0,0,1.136-1.174,2.647,2.647,0,0,0-1.509-.892,2.905,2.905,0,0,0-1.523.1,2.934,2.934,0,0,0-1.273.832,3,3,0,0,0-.473.742c0,.015,0,.031,0,.046a4.925,4.925,0,0,1-.171.835" transform="translate(-27.727 -11.659)" fill="#8ccdc1"/>
      <path id="Pfad_15322" data-name="Pfad 15322" d="M5.634,108.937H30.911l.888-2.662H4.746Z" transform="translate(-3.35 -75.016)" fill="#8ccdc1"/>
    </g>
  </g>
</svg>
