<svg id="Gruppe_2555" data-name="Gruppe 2555" xmlns="http://www.w3.org/2000/svg" xmlns:xlink="http://www.w3.org/1999/xlink" width="34.187" height="33.248" viewBox="0 0 34.187 33.248">
  <defs>
    <clipPath id="clip-path">
      <rect id="Rechteck_1535" data-name="Rechteck 1535" width="34.187" height="33.248" fill="none"/>
    </clipPath>
  </defs>
  <g id="Gruppe_2554" data-name="Gruppe 2554" clip-path="url(#clip-path)">
    <path id="Pfad_15302" data-name="Pfad 15302" d="M20.886,23.329c-2.981.74-5.318,3.9-6.853,6.062-.061.042-2.623,4.641-4.561,5.131a1.146,1.146,0,0,0-.93,1.213l.451,3.791a1.674,1.674,0,0,0,1.143,1.256c.722.265,3.991.76,5.471.982H6.022a3.061,3.061,0,0,0,.559-1.647l1.3-.184-.632-4.474-1.356.192a3.058,3.058,0,0,0-1.021-1.345,3.11,3.11,0,0,0-4.35.615,2.979,2.979,0,0,0,.339,3.754,3.493,3.493,0,0,0,.13,3.089H.54v5.406h3.27v2.823H8.068V47.169h18.25v2.823h4.259V47.169h3.269V41.763H25.44l.019-.005c5.95-1.476,9.748-6.8,8.486-11.887s-7.11-8.018-13.059-6.542M1.8,35.884a1.505,1.505,0,0,1,2.1-.3,1.487,1.487,0,0,1,.584,1.043l.088.826,1.306-.185.183,1.3-1.351.191.212.863A1.5,1.5,0,1,1,2.272,39.1l.7-.746-.869-.367a1.5,1.5,0,0,1-.3-2.106m23.4-7.812a4.55,4.55,0,0,0-5.97,2.985c-.494,1.364-2.684.775-2.186-.6A6.855,6.855,0,0,1,25.8,25.886a1.134,1.134,0,0,1-.6,2.185" transform="translate(0 -16.743)" fill="#8ccdc1"/>
  </g>
</svg>
