<svg xmlns="http://www.w3.org/2000/svg" width="13.523" height="16.915" viewBox="0 0 13.523 16.915">
  <g id="hand-thumbs-up" transform="translate(-4.25 -0.373)">
    <path id="Pfad_46659" data-name="Pfad 46659" d="M9.673,2.158A1.625,1.625,0,0,1,11.664.676l.272.069a1.437,1.437,0,0,1,1.056,1.007,9.78,9.78,0,0,1,.065,4.707q.231-.032.463-.053a6.684,6.684,0,0,1,2.626.219A2.168,2.168,0,0,1,17.4,7.954a1.981,1.981,0,0,1-.244,1.809,2.3,2.3,0,0,1,.144.379,3.446,3.446,0,0,1,0,1.787,2.167,2.167,0,0,1-.167.422,1.694,1.694,0,0,1,0,1.2,3.3,3.3,0,0,1-.509.94,1.461,1.461,0,0,1,.079.485,1.945,1.945,0,0,1-.264.952,2.251,2.251,0,0,1-2.018,1.111V15.993a1.215,1.215,0,0,0,1.113-.585.9.9,0,0,0,.126-.434.276.276,0,0,0-.042-.178l-.369-.369.368-.369a2.309,2.309,0,0,0,.527-.839c.109-.326.045-.46-.005-.509l-.368-.369.368-.369a.763.763,0,0,0,.161-.329,2.384,2.384,0,0,0,0-1.213.8.8,0,0,0-.161-.329l-.369-.37.368-.369A.97.97,0,0,0,16.412,8.3a1.148,1.148,0,0,0-.6-.681,5.682,5.682,0,0,0-2.2-.171,9.3,9.3,0,0,0-1.142.179l-.015,0h0a.522.522,0,0,1-.621-.671,8.705,8.705,0,0,0,.151-4.933.394.394,0,0,0-.3-.266L11.41,1.69a.579.579,0,0,0-.7.54,12.619,12.619,0,0,1-.5,2.975A6.676,6.676,0,0,1,8.918,7.269,5.793,5.793,0,0,1,6.19,9.052a.791.791,0,0,0-.647.679v4.177a.612.612,0,0,0,.577.574,5.509,5.509,0,0,1,2.6.906l.042.026a4.08,4.08,0,0,0,.81.41,3.581,3.581,0,0,0,1.19.17h3.653v1.044H10.763a4.59,4.59,0,0,1-1.53-.227,5.031,5.031,0,0,1-1.013-.505l-.05-.032a4.477,4.477,0,0,0-2.159-.753A1.657,1.657,0,0,1,4.5,13.906V9.731A1.825,1.825,0,0,1,5.916,8.045,4.768,4.768,0,0,0,8.142,6.573,5.713,5.713,0,0,0,9.226,4.863a11.659,11.659,0,0,0,.447-2.7Z" transform="translate(0 0)" fill="#a5b5af" stroke="#a5b5af" stroke-width="0.5" fill-rule="evenodd"/>
  </g>
</svg>
