<svg xmlns="http://www.w3.org/2000/svg" width="16.926" height="17.058" viewBox="0 0 16.926 17.058">
  <path id="whatsapp" d="M10.854,9.973a5.031,5.031,0,0,1,1.074.485,4.774,4.774,0,0,1,.986.584.468.468,0,0,1,.022.165,2.321,2.321,0,0,1-.188.837,1.479,1.479,0,0,1-.782.722,2.606,2.606,0,0,1-1.124.292,5.953,5.953,0,0,1-2.094-.683,6.282,6.282,0,0,1-1.873-1.3A14.532,14.532,0,0,1,5.245,9.037,3.853,3.853,0,0,1,4.463,6.9V6.811A2.437,2.437,0,0,1,5.278,5.07a.834.834,0,0,1,.573-.242,1.741,1.741,0,0,1,.2.017,1.772,1.772,0,0,0,.209.017.453.453,0,0,1,.292.072.8.8,0,0,1,.171.3q.088.22.363.97a6.548,6.548,0,0,1,.276.827,1.12,1.12,0,0,1-.38.634q-.38.4-.381.512a.314.314,0,0,0,.055.165,4.968,4.968,0,0,0,1.124,1.51,7.033,7.033,0,0,0,1.664,1.113.488.488,0,0,0,.242.077q.165,0,.6-.534t.573-.534Zm-2.237,5.84a6.736,6.736,0,0,0,2.683-.551,6.815,6.815,0,0,0,3.686-3.686,6.81,6.81,0,0,0,0-5.367A6.815,6.815,0,0,0,11.3,2.524a6.81,6.81,0,0,0-5.367,0A6.815,6.815,0,0,0,2.248,6.21a6.852,6.852,0,0,0,.771,6.738l-.87,2.567,2.667-.848a6.775,6.775,0,0,0,3.8,1.146Zm0-15.229a8.074,8.074,0,0,1,3.223.661A8.213,8.213,0,0,1,16.264,5.67a8.186,8.186,0,0,1,0,6.446,8.213,8.213,0,0,1-4.424,4.424,8.069,8.069,0,0,1-3.223.661,8.182,8.182,0,0,1-4.022-1.036L0,17.643,1.5,13.18A8.261,8.261,0,0,1,.97,5.67,8.213,8.213,0,0,1,5.394,1.246,8.06,8.06,0,0,1,8.617.585Z" transform="translate(0 -0.585)" fill="#a5b5af"/>
</svg>
