<svg id="Gruppe_2560" data-name="Gruppe 2560" xmlns="http://www.w3.org/2000/svg" xmlns:xlink="http://www.w3.org/1999/xlink" width="37.186" height="28.999" viewBox="0 0 37.186 28.999">
  <defs>
    <clipPath id="clip-path">
      <rect id="Rechteck_1537" data-name="Rechteck 1537" width="37.186" height="28.999" fill="#8ccdc1"/>
    </clipPath>
  </defs>
  <g id="Gruppe_maskieren_2559" data-name="Gruppe maskieren 2559" transform="translate(0 0)" clip-path="url(#clip-path)">
    <path id="Pfad_15323" data-name="Pfad 15323" d="M40.99,14.351a4.483,4.483,0,0,0-.656-1.938A2.538,2.538,0,0,0,39.18,11.36c-.409-.117-.747-.227-1.085-.292a8.106,8.106,0,0,0-.882-.166c-.257-.037-.474-.07-.652-.078l-.543-.047.533.141c.175.041.386.109.635.189s.532.179.846.3.672.279,1.031.437a2.36,2.36,0,0,1,.866.984,3.72,3.72,0,0,1,.414,1.607A3.851,3.851,0,0,1,39.97,16.2a4.958,4.958,0,0,1-.475.8l-.157.207-.15.175c-.1.124-.213.245-.328.36a9.5,9.5,0,0,1-1.516,1.27,13.592,13.592,0,0,1-1.771,1.01,18.744,18.744,0,0,1-1.934.82,30.043,30.043,0,0,1-4.2,1.143,32.431,32.431,0,0,1-4.408.561,19.016,19.016,0,0,1-4.387-.282,28.079,28.079,0,0,1-4.221-1,21.723,21.723,0,0,1-3.806-1.594,11.481,11.481,0,0,1-3.055-2.325,7.663,7.663,0,0,1-1.05-1.468,3.273,3.273,0,0,1-.424-1.6,2.529,2.529,0,0,1,.46-1.353,4.067,4.067,0,0,1,.819-.864,6.923,6.923,0,0,1,1.374-.846A5.47,5.47,0,0,1,11.263,11a5.056,5.056,0,0,0-.534.137,5.941,5.941,0,0,0-1.469.652,4.033,4.033,0,0,0-.95.818,2.91,2.91,0,0,0-.673,1.621,4.2,4.2,0,0,0,.393,2.05,8.129,8.129,0,0,0,1.08,1.753,12.163,12.163,0,0,0,3.127,2.76,20.762,20.762,0,0,0,3.9,1.907,27.561,27.561,0,0,0,4.343,1.2,19.908,19.908,0,0,0,4.6.355,29.4,29.4,0,0,0,4.555-.623,25.062,25.062,0,0,0,4.327-1.316,20.114,20.114,0,0,0,2.013-.946,14.94,14.94,0,0,0,1.847-1.209,10.8,10.8,0,0,0,1.615-1.513,5.248,5.248,0,0,0,.35-.438c.058-.08.107-.138.172-.233l.146-.222a6.235,6.235,0,0,0,.536-1.056,5.123,5.123,0,0,0,.346-2.345" transform="translate(-3.826 -3.694)" fill="#8ccdc1"/>
    <path id="Pfad_15324" data-name="Pfad 15324" d="M12.533,14.892c-.44.383-1.162.779-1.6.2a.721.721,0,0,1,.562-1.14c.415-.011.416-.864,0-.852a1.44,1.44,0,0,0-1.315,1.755,1.363,1.363,0,0,0,1.969,1.223c1.555-.609,2.524-2.8,3.608-4.231.907-1.195,3.747-2.436,4.434-.277.159.5.784.28.623-.226-.853-2.682-3.708-1.826-5.127-.519-1.21,1.119-1.9,2.977-3.15,4.066" transform="translate(-5.1 -3.286)" fill="#8ccdc1"/>
    <path id="Pfad_15325" data-name="Pfad 15325" d="M36.538,19.648a2.913,2.913,0,0,0-.348-2.925,1.2,1.2,0,0,0-2.058.338,1.654,1.654,0,0,0,.913,2.173c.4.143.573-.68.172-.822-.85-.3-.6-1.387.23-1.228.626.119.733,1.039.628,1.7-.236,1.481-1.83,1.459-2.7,1.358-1.981-.228-3.195-1.834-4.512-3.594-1.028-1.374-2.125-2.873-3.553-3.481-1.541-.657-2.822.717-3.7,2.239-.253.436.308.86.557.43.861-1.485,1.977-2.453,3.381-1.647a10.5,10.5,0,0,1,2.713,2.866,23.118,23.118,0,0,0,2.312,2.816,5.182,5.182,0,0,0,3.285,1.266,2.6,2.6,0,0,0,2.684-1.487" transform="translate(-10.812 -4.455)" fill="#8ccdc1"/>
    <path id="Pfad_15326" data-name="Pfad 15326" d="M54.486,17.386a3.518,3.518,0,0,0,1.377-2.948,1.661,1.661,0,0,0-1.577-1.38,2.641,2.641,0,0,0-2.154.586,1.016,1.016,0,0,0,.274,1.6c.352.262.676-.388.326-.647-.791-.588,1.006-.812,1.324-.806,1.449.028,1.321,1.409.56,2.476-.988,1.382-2.784,1.123-4.109.752a20.645,20.645,0,0,1-4.147-1.868,14.472,14.472,0,0,0-3.686-1.459c-1.026-.227-2.755-.023-2.927,1.539-.153,1.4,1.243,2.415,2.251,1.594.919-.749.237-1.962-.754-1.566-.391.156-.223.881.172.724.143-.138.252-.112.321.076-.173.436-.7.333-.977.172-.728-.417-.268-1.339.216-1.688.728-.524,1.89-.067,2.632.191a26.185,26.185,0,0,1,3.483,1.629c2.128,1.114,5.178,2.649,7.4,1.025" transform="translate(-19.945 -4.465)" fill="#8ccdc1"/>
    <path id="Pfad_15327" data-name="Pfad 15327" d="M44.158,9.044c.3-.381-.155-.983-.456-.6-.613.777-1.543-.95-.446-1.515s1.9.789,2.426,1.843c.922,1.851,1.942,3.32,3.72,3.583.937.139,3.1-.254,2.59-2.156a1.664,1.664,0,0,0-2.974-.6c-.316.358.143.958.456.6A1.061,1.061,0,0,1,50.9,9.9a.773.773,0,0,1,.255,1.257c-.9.845-2.319.3-3.2-.3C46.445,9.812,46.179,7.115,44.6,6.183A1.707,1.707,0,0,0,42.076,7.9c.145,1.335,1.288,2.15,2.081,1.144" transform="translate(-21.113 -2.05)" fill="#8ccdc1"/>
    <path id="Pfad_15328" data-name="Pfad 15328" d="M35.558,11.64c.405-.122.234-.944-.172-.822a1.837,1.837,0,0,0-1.061,2.368c.374.808,1.28.548,1.786.166a2.977,2.977,0,0,0,.817-2.958c-.318-1.57-1.082-2.756-2.374-2.445-.41.1-.237.919.17.822.912-.22,1.257.7,1.542,1.689a2.175,2.175,0,0,1-.284,1.964.938.938,0,0,1-1.031.39c-.51-.214.412-1.117.608-1.174" transform="translate(-17.158 -2.708)" fill="#8ccdc1"/>
    <path id="Pfad_15329" data-name="Pfad 15329" d="M31.316,8.641c.406-.07.411-.923,0-.852-.336.059-.488-.072-.533-.551a1.339,1.339,0,0,1,.7-1.357,3.593,3.593,0,0,1,1.5-.356c.706-.037,2.539.2,1.858,1.619-.224.465.335.893.557.43,1.167-2.427-1.633-3.038-2.889-2.848a2.355,2.355,0,0,0-2.34,1.917c-.193,1.057.264,2.153,1.144,2" transform="translate(-15.123 -1.609)" fill="#8ccdc1"/>
    <path id="Pfad_15330" data-name="Pfad 15330" d="M16.067,10.966c.432-1.543,2.775-4.031,3.9-2.482.289.4.745-.207.457-.6-1.537-2.107-4.387.727-4.984,2.858-.145.517.48.737.623.226" transform="translate(-7.741 -2.447)" fill="#8ccdc1"/>
    <path id="Pfad_15331" data-name="Pfad 15331" d="M18.512,20.907c.3.374.761-.227.456-.6-.813-1-1.846.092-1.414,1.4.731,2.215,3.827,1.416,5.124.832.391-.177.224-1-.172-.821a5.383,5.383,0,0,1-3.555.383,1.1,1.1,0,0,1-.851-.979c-.027-.444.208-.463.412-.211" transform="translate(-8.76 -6.825)" fill="#8ccdc1"/>
    <path id="Pfad_15332" data-name="Pfad 15332" d="M28.413,21.433c1.144.815,2.156.275,1.967-1.541-.056-.541-.678-.31-.622.227.115,1.105-.506.9-1.021.579a4.772,4.772,0,0,1-1.362-2.122c-.5-1.069-.986-2.129-2-2.277-1.315-.193-2.325,2.975-.516,2.644.412-.075.236-.9-.171-.822-.436.08.1-.662.086-.639a.71.71,0,0,1,1.052-.158c.407.27.738,1.192.988,1.683a6.115,6.115,0,0,0,1.594,2.427" transform="translate(-11.989 -5.584)" fill="#8ccdc1"/>
    <path id="Pfad_15333" data-name="Pfad 15333" d="M54.393,22.31c.357.287.68-.45.326-.736A1.1,1.1,0,0,0,53,21.7a1.614,1.614,0,0,0,.186,1.98,2.625,2.625,0,0,0,2.542.352,2.22,2.22,0,0,0,1.407-2.41c-.03-.545-.675-.549-.645,0,.1,1.777-1.588,1.884-2.556,1.587a.66.66,0,0,1-.5-.864c.2-.482.691-.248.954-.036" transform="translate(-26.476 -7.271)" fill="#8ccdc1"/>
    <path id="Pfad_15334" data-name="Pfad 15334" d="M51.578,8.219c.135-2.177,5.416-.905,5.379,1.514-.008.55.638.55.646,0,.031-2.108-1.989-2.981-3.255-3.267-1.123-.254-3.289-.3-3.415,1.753-.033.549.611.543.644,0" transform="translate(-25.565 -2.174)" fill="#8ccdc1"/>
    <path id="Pfad_15335" data-name="Pfad 15335" d="M34.734,26.431a1.951,1.951,0,0,0,1.607-.71c.4-.676-.164-1.274-.585-1.58-.365-.266-.691.471-.326.735.427.312.539.335.058.534a3.537,3.537,0,0,1-1.473.188c-.867-.023-2.491-.252-2.773-1.6-.11-.529-.734-.3-.623.226.438,2.094,2.78,2.317,4.115,2.2" transform="translate(-15.362 -8.124)" fill="#8ccdc1"/>
    <path id="Pfad_15336" data-name="Pfad 15336" d="M26.215,29.634h-.152c-1.237,0-9.778-.2-15.094-5.677,0,0,1.731,11.764,4.66,13.249H36.646c2.932-1.475,4.661-13.256,4.661-13.256-5.313,5.479-13.854,5.686-15.092,5.686Z" transform="translate(-5.506 -8.209)" fill="#8ccdc1"/>
  </g>
</svg>
