<svg xmlns="http://www.w3.org/2000/svg" width="15.473" height="15.501" viewBox="0 0 15.473 15.501">
  <path id="Icon_feather-phone" data-name="Icon feather-phone" d="M17.14,13.482v2.108a1.405,1.405,0,0,1-1.532,1.405,13.9,13.9,0,0,1-6.063-2.157A13.7,13.7,0,0,1,5.33,10.622,13.9,13.9,0,0,1,3.174,4.531,1.405,1.405,0,0,1,4.572,3H6.679A1.405,1.405,0,0,1,8.084,4.208a9.02,9.02,0,0,0,.492,1.974A1.405,1.405,0,0,1,8.26,7.665l-.892.892a11.24,11.24,0,0,0,4.215,4.215l.892-.892a1.405,1.405,0,0,1,1.482-.316,9.02,9.02,0,0,0,1.974.492A1.405,1.405,0,0,1,17.14,13.482Z" transform="translate(-2.417 -2.25)" fill="none" stroke="#a5b5af" stroke-linecap="round" stroke-linejoin="round" stroke-width="1.5"/>
</svg>
