<svg xmlns="http://www.w3.org/2000/svg" width="89.845" height="85.925" viewBox="0 0 89.845 85.925">
  <g id="Gruppe_7684" data-name="Gruppe 7684" transform="translate(0)">
    <path id="Pfad_12163" data-name="Pfad 12163" d="M.754,37.361C-1.2,49.083-.543,68.49,17.418,69.22s18.992,7.24,31.006,3.585S71.433,40.038,67.311,22.72C65.1,13.437,44.645-3.945,27.779.807,13.255,4.9,1.975,30.02.754,37.361Z" transform="translate(0 65.552) rotate(-74)" fill="#1c9d87"/>
    <g id="Icon_feather-users" data-name="Icon feather-users" transform="translate(29.408 26.587)">
      <path id="Pfad_15305" data-name="Pfad 15305" d="M22.612,30.417V27.778A5.278,5.278,0,0,0,17.334,22.5H6.778A5.278,5.278,0,0,0,1.5,27.778v2.639" transform="translate(0 -2.166)" fill="none" stroke="#fff" stroke-linecap="round" stroke-linejoin="round" stroke-width="2.5"/>
      <path id="Pfad_15306" data-name="Pfad 15306" d="M18.056,9.778A5.278,5.278,0,1,1,12.778,4.5,5.278,5.278,0,0,1,18.056,9.778Z" transform="translate(-0.722)" fill="none" stroke="#fff" stroke-linecap="round" stroke-linejoin="round" stroke-width="2.5"/>
      <path id="Pfad_15307" data-name="Pfad 15307" d="M33.958,30.44V27.8A5.278,5.278,0,0,0,30,22.7" transform="translate(-3.43 -2.19)" fill="none" stroke="#fff" stroke-linecap="round" stroke-linejoin="round" stroke-width="2.5"/>
      <path id="Pfad_15308" data-name="Pfad 15308" d="M24,4.7a5.278,5.278,0,0,1,0,10.226" transform="translate(-2.708 -0.023)" fill="none" stroke="#fff" stroke-linecap="round" stroke-linejoin="round" stroke-width="2.5"/>
    </g>
  </g>
</svg>
