<svg xmlns="http://www.w3.org/2000/svg" width="17.805" height="7.631" viewBox="0 0 17.805 7.631">
  <g id="link" transform="translate(-2.25 -12.375)">
    <path id="Pfad_46660" data-name="Pfad 46660" d="M9.059,12.375H6.065a3.815,3.815,0,1,0,0,7.631H9.881a3.815,3.815,0,0,0,3.6-5.087H12.424a1.237,1.237,0,0,0-.318.04,2.544,2.544,0,0,1-2.225,3.776H6.065a2.544,2.544,0,1,1,0-5.087H8.018a5.1,5.1,0,0,1,1.043-1.272Z" transform="translate(0 0)" fill="#a5b5af"/>
    <path id="Pfad_46661" data-name="Pfad 46661" d="M17.314,12.375a3.815,3.815,0,0,0-3.6,5.087h1.4a2.544,2.544,0,0,1,2.2-3.815h3.815a2.544,2.544,0,0,1,0,5.087H19.177a5.113,5.113,0,0,1-1.043,1.272h3a3.815,3.815,0,0,0,0-7.631Z" transform="translate(-4.89 0)" fill="#a5b5af"/>
  </g>
</svg>
