<svg xmlns="http://www.w3.org/2000/svg" width="15.837" height="15.837" viewBox="0 0 15.837 15.837">
  <path id="instagram" d="M10.558,7.919a2.641,2.641,0,0,0-2.64-2.64,2.641,2.641,0,0,0-2.64,2.64,2.641,2.641,0,0,0,2.64,2.64,2.641,2.641,0,0,0,2.64-2.64Zm1.423,0a4.048,4.048,0,0,1-4.062,4.062A4.048,4.048,0,0,1,3.856,7.919,4.048,4.048,0,0,1,7.919,3.856a4.048,4.048,0,0,1,4.062,4.062Zm1.113-4.227a.948.948,0,1,1-1.618-.67.948.948,0,0,1,1.618.67ZM7.919,1.423,7.13,1.417q-.717-.005-1.088,0t-1,.031a8.131,8.131,0,0,0-1.062.1,4.1,4.1,0,0,0-.737.191A2.7,2.7,0,0,0,1.743,3.248a4.138,4.138,0,0,0-.191.737,8.131,8.131,0,0,0-.1,1.062q-.026.624-.031,1t0,1.088q.005.717.005.789t-.005.789q-.005.717,0,1.088t.031,1a8.131,8.131,0,0,0,.1,1.062,4.113,4.113,0,0,0,.191.736,2.7,2.7,0,0,0,1.505,1.505,4.138,4.138,0,0,0,.737.191,8.132,8.132,0,0,0,1.062.1q.624.026,1,.031t1.088,0l.789-.005.789.005q.717.005,1.088,0t1-.031a8.131,8.131,0,0,0,1.062-.1,4.138,4.138,0,0,0,.737-.191A2.7,2.7,0,0,0,14.1,12.589a4.138,4.138,0,0,0,.191-.737,8.131,8.131,0,0,0,.1-1.062q.026-.624.031-1t0-1.088q-.005-.717-.005-.789t.005-.789q.005-.717,0-1.088t-.031-1a8.131,8.131,0,0,0-.1-1.062,4.059,4.059,0,0,0-.192-.736,2.7,2.7,0,0,0-1.505-1.505,4.138,4.138,0,0,0-.737-.191,8.131,8.131,0,0,0-1.062-.1q-.624-.026-1-.031t-1.088,0l-.789.005Zm7.919,6.5q0,2.361-.051,3.269a4.836,4.836,0,0,1-1.278,3.32,4.836,4.836,0,0,1-3.32,1.278q-.908.051-3.269.051T4.65,15.786a4.836,4.836,0,0,1-3.32-1.278,4.836,4.836,0,0,1-1.278-3.32Q0,10.28,0,7.919T.051,4.65A4.836,4.836,0,0,1,1.33,1.33,4.836,4.836,0,0,1,4.65.051Q5.558,0,7.919,0t3.269.051a4.836,4.836,0,0,1,3.32,1.278,4.836,4.836,0,0,1,1.278,3.32Q15.837,5.558,15.837,7.919Z" fill="#a5b5af"/>
</svg>
