<svg xmlns="http://www.w3.org/2000/svg" width="62" height="17.3" viewBox="0 0 62 17.3">
  <path id="Subtraction_4" data-name="Subtraction 4" d="M59,17H3a3,3,0,0,1-3-3V2.7a3,3,0,0,1,3-3H59a3,3,0,0,1,3,3V14A3,3,0,0,1,59,17ZM34.818,9.462a.2.2,0,0,0-.211.21,1.676,1.676,0,0,0,.35.95,2.3,2.3,0,0,0,.97.71,3.942,3.942,0,0,0,1.53.27,4.115,4.115,0,0,0,1.485-.249,2.221,2.221,0,0,0,1-.725A1.82,1.82,0,0,0,40.3,9.511a1.744,1.744,0,0,0-.25-.97,1.852,1.852,0,0,0-.775-.63,6.949,6.949,0,0,0-1.4-.45,8.495,8.495,0,0,1-1-.31,1.357,1.357,0,0,1-.5-.32.667.667,0,0,1-.16-.46.689.689,0,0,1,.32-.61,1.6,1.6,0,0,1,.88-.21,1.551,1.551,0,0,1,.84.215.81.81,0,0,1,.4.535.293.293,0,0,0,.291.191h.93a.2.2,0,0,0,.21-.211,1.613,1.613,0,0,0-.335-.865,2.372,2.372,0,0,0-.915-.725A3.24,3.24,0,0,0,37.409,4.4a3.454,3.454,0,0,0-1.385.26,2.116,2.116,0,0,0-.91.71A1.755,1.755,0,0,0,34.8,6.4a1.654,1.654,0,0,0,.545,1.325,4.2,4.2,0,0,0,1.725.745c.472.124.837.232,1.084.319a1.5,1.5,0,0,1,.55.311.616.616,0,0,1,.185.46.743.743,0,0,1-.36.654,1.984,1.984,0,0,1-1.07.236,1.819,1.819,0,0,1-.98-.23,1.025,1.025,0,0,1-.46-.57.456.456,0,0,0-.125-.145.315.315,0,0,0-.185-.045ZM28.078,4.5a.228.228,0,0,0-.175.07.256.256,0,0,0-.065.18v4.07a2.715,2.715,0,0,0,.751,2.091,3,3,0,0,0,2.1.689,2.982,2.982,0,0,0,2.1-.689,2.727,2.727,0,0,0,.744-2.091V4.751a.256.256,0,0,0-.065-.18.227.227,0,0,0-.175-.07h-.9a.242.242,0,0,0-.18.07.245.245,0,0,0-.07.18v4.07a1.724,1.724,0,0,1-.375,1.205,1.4,1.4,0,0,1-1.075.4,1.414,1.414,0,0,1-1.08-.4,1.708,1.708,0,0,1-.38-1.205V4.751a.253.253,0,0,0-.066-.18.227.227,0,0,0-.175-.07Zm23.34,0a.227.227,0,0,0-.175.07.256.256,0,0,0-.065.18v6.511a.228.228,0,0,0,.069.169.233.233,0,0,0,.17.07H55.9a.256.256,0,0,0,.18-.065.227.227,0,0,0,.07-.175V10.6a.24.24,0,0,0-.25-.25h-3.37V8.521H55.6a.256.256,0,0,0,.18-.065.225.225,0,0,0,.069-.175V7.662a.225.225,0,0,0-.069-.175.256.256,0,0,0-.18-.065h-3.07V5.651h3.29A.253.253,0,0,0,56,5.586a.227.227,0,0,0,.07-.175V4.751a.245.245,0,0,0-.07-.18.242.242,0,0,0-.18-.07Zm-7.27,0a.206.206,0,0,0-.21.211l.02.09,2.14,6.42a.369.369,0,0,0,.38.28h1.1a.369.369,0,0,0,.38-.28L50.1,4.8l.02-.09a.2.2,0,0,0-.065-.15.212.212,0,0,0-.146-.06h-.879a.307.307,0,0,0-.211.07.3.3,0,0,0-.1.15l-1.69,5.15-1.689-5.15a.347.347,0,0,0-.105-.155.3.3,0,0,0-.205-.066Zm-2.46,0a.24.24,0,0,0-.17.066.227.227,0,0,0-.07.175v6.521a.229.229,0,0,0,.07.169.233.233,0,0,0,.17.07h.941a.227.227,0,0,0,.175-.07.239.239,0,0,0,.065-.169V4.741a.237.237,0,0,0-.065-.175.234.234,0,0,0-.175-.066Zm-19.2,0a.24.24,0,0,0-.17.066.227.227,0,0,0-.07.175v6.521a.229.229,0,0,0,.07.169.233.233,0,0,0,.17.07h4.34a.253.253,0,0,0,.18-.065.227.227,0,0,0,.07-.175v-.7a.24.24,0,0,0-.25-.25h-3.17V4.741a.225.225,0,0,0-.24-.24ZM17.3,8.672l0,0,2.418,2.648a.467.467,0,0,0,.39.18h1.031a.21.21,0,0,0,.145-.059.2.2,0,0,0,.065-.15.2.2,0,0,0-.049-.13l-2.94-3.309,2.75-3.02a.183.183,0,0,0,.04-.12.2.2,0,0,0-.065-.15.211.211,0,0,0-.145-.06h-.99a.454.454,0,0,0-.391.18L17.3,7.091V4.751a.245.245,0,0,0-.07-.18.242.242,0,0,0-.18-.07h-.879a.228.228,0,0,0-.175.07.256.256,0,0,0-.065.18v6.511a.24.24,0,0,0,.24.239h.879a.253.253,0,0,0,.18-.065.227.227,0,0,0,.07-.175V8.672Zm-7.11-1.71,0,0,2.868,4.377a.355.355,0,0,0,.29.16h.78a.233.233,0,0,0,.17-.07.242.242,0,0,0,.07-.18v-6.5a.24.24,0,0,0-.25-.25h-.841a.227.227,0,0,0-.175.07.256.256,0,0,0-.065.18v4.39l-2.88-4.48a.543.543,0,0,0-.11-.115.3.3,0,0,0-.18-.045H9.1a.227.227,0,0,0-.175.07.253.253,0,0,0-.066.18v6.511a.229.229,0,0,0,.07.169.233.233,0,0,0,.17.07h.84a.253.253,0,0,0,.18-.065.227.227,0,0,0,.07-.175v-4.3ZM6.108,4.5a.24.24,0,0,0-.17.066.227.227,0,0,0-.07.175v6.521a.229.229,0,0,0,.07.169.233.233,0,0,0,.17.07h.94a.228.228,0,0,0,.175-.07.239.239,0,0,0,.065-.169V4.741a.225.225,0,0,0-.24-.24Z" transform="translate(0 0.3)" fill="#f8a492"/>
</svg>
