<svg xmlns="http://www.w3.org/2000/svg" width="467.553" height="295.401" viewBox="0 0 467.553 295.401">
  <path id="handshake-o" d="M38.963,181.826q8.117,0,11.364-6.494a13.8,13.8,0,0,0,0-12.988q-3.247-6.494-11.364-6.494T27.6,162.345a13.8,13.8,0,0,0,0,12.988Q30.845,181.826,38.963,181.826Zm298.922-11.767q-2.026-2.636-7.819-10.143t-8.416-10.962q-2.624-3.455-7.715-9.948t-8.624-10.754q-3.533-4.26-8.221-9.533t-9.13-9.948L262.6,137.188q-16.845,19.079-42.313,18.676t-41.7-19.9a49.608,49.608,0,0,1,.4-63.925l35.924-41.807a39.6,39.6,0,0,0-10.351-3.351,63.232,63.232,0,0,0-9.637-1.221q-3.753-.1-11.468.1t-9.948.208a43.747,43.747,0,0,0-32.066,13.39L109.381,71.432H77.925V181.826q1.013,0,4.26-.1t4.468,0q1.221.1,3.961.4a14.773,14.773,0,0,1,4.156.922q1.416.623,3.546,1.727a14.908,14.908,0,0,1,3.753,2.74l60.275,59.262q23.339,22.52,46.067,22.52,15.832,0,25.365-9.533a28.083,28.083,0,0,0,22.832-1.623,27.579,27.579,0,0,0,14.715-17.247,32.139,32.139,0,0,0,25.767-8.935,37.805,37.805,0,0,0,7.312-9.234q3.247-5.585,2.844-10.247,2.026,2.026,8.728,2.026a29.121,29.121,0,0,0,15.624-4.26,25.864,25.864,0,0,0,10.039-10.754,27.916,27.916,0,0,0-3.753-29.43Zm32.261,11.767h19.481V77.926H370.756L338.9,41.392q-13.39-15.429-34.3-15.429H270.713q-18.066,0-29.625,13.6L198.671,88.887a22.877,22.877,0,0,0-5.689,15.221,23.391,23.391,0,0,0,5.481,15.221,28.51,28.51,0,0,0,22.326,10.559,28.077,28.077,0,0,0,22.52-9.948L282.479,75.7q5.078-4.663,10.858-4.364A12.993,12.993,0,0,1,304.6,88.29q3.247,3.857,11.364,12.78t12.182,13.806q5.883,7.312,16.741,21.4t13.091,17.144q10.559,13.39,12.182,28.417Zm58.444,0q8.117,0,11.364-6.494a13.8,13.8,0,0,0,0-12.988q-3.247-6.494-11.364-6.494t-11.364,6.494a13.8,13.8,0,0,0,0,12.988Q420.472,181.826,428.59,181.826ZM467.552,64.938V194.814A13.174,13.174,0,0,1,454.565,207.8H366.5a51.1,51.1,0,0,1-16.637,21.611,54.194,54.194,0,0,1-25.365,10.455A65.458,65.458,0,0,1,308.156,256.4a56.911,56.911,0,0,1-20.806,9.234,56.555,56.555,0,0,1-21.209,16.533,54.222,54.222,0,0,1-26.079,4.974,61.836,61.836,0,0,1-25.573,8.013,66.447,66.447,0,0,1-25.871-2.844,107.656,107.656,0,0,1-23.741-10.858,118.036,118.036,0,0,1-21-16.442L85.64,207.788H12.988a12.48,12.48,0,0,1-9.13-3.857A12.466,12.466,0,0,1,0,194.814V58.444a12.48,12.48,0,0,1,3.857-9.13,12.48,12.48,0,0,1,9.13-3.857H98.42q2.844-2.844,9.533-9.741t9.637-9.741q2.948-2.844,8.935-8.117a60.66,60.66,0,0,1,10.247-7.611q4.26-2.338,10.351-5.169a50.13,50.13,0,0,1,12.585-3.961A79.608,79.608,0,0,1,173.5,0h23.741a63.709,63.709,0,0,1,36.729,11.364A63.709,63.709,0,0,1,270.7,0h33.885a73.488,73.488,0,0,1,13.6,1.221A80.529,80.529,0,0,1,329.65,4.169a47.341,47.341,0,0,1,10.468,5.364q5.494,3.637,9.026,6.286a78.989,78.989,0,0,1,8.728,8.013q5.2,5.364,7.909,8.52t8.325,9.741q5.611,6.585,8.416,9.858h72.042a13.174,13.174,0,0,1,12.988,12.988Z" fill="#a5b5af"/>
</svg>
