<svg xmlns="http://www.w3.org/2000/svg" width="26.444" height="22.072" viewBox="0 0 26.444 22.072">
  <g id="Icon_feather-users" data-name="Icon feather-users" transform="translate(-0.5 -3.428)">
    <path id="Pfad_47026" data-name="Pfad 47026"
      d="M19.284,29.169V26.946A4.446,4.446,0,0,0,14.838,22.5H5.946A4.446,4.446,0,0,0,1.5,26.946v2.223"
      transform="translate(0 -4.669)" fill="none" stroke="#2ecf96" stroke-linecap="round" stroke-linejoin="round"
      stroke-width="2" />
    <path id="Pfad_47027" data-name="Pfad 47027"
      d="M16.392,8.946A4.446,4.446,0,1,1,11.946,4.5,4.446,4.446,0,0,1,16.392,8.946Z" transform="translate(-1.556)"
      fill="none" stroke="#2ecf96" stroke-linecap="round" stroke-linejoin="round" stroke-width="2" />
    <path id="Pfad_47028" data-name="Pfad 47028" d="M33.335,29.22V27A4.446,4.446,0,0,0,30,22.7"
      transform="translate(-7.39 -4.72)" fill="none" stroke="#2ecf96" stroke-linecap="round" stroke-linejoin="round"
      stroke-width="2" />
    <path id="Pfad_47029" data-name="Pfad 47029" d="M24,4.7a4.446,4.446,0,0,1,0,8.614"
      transform="translate(-5.834 -0.051)" fill="none" stroke="#2ecf96" stroke-linecap="round" stroke-linejoin="round"
      stroke-width="2" />
  </g>
</svg>