<svg xmlns="http://www.w3.org/2000/svg" width="225.616" height="225.616" viewBox="0 0 225.616 225.616">
  <g id="Gruppe_37888" data-name="Gruppe 37888" transform="translate(-56.656 -204.156)">
    <path id="Icon_ionic-ios-magnet" data-name="Icon ionic-ios-magnet" d="M228.015,119.383,134.406,25.774A76.715,76.715,0,0,0,3.375,80.117a76.2,76.2,0,0,0,22.4,54.289l93.609,93.609a3.375,3.375,0,0,0,2.332.976,3.242,3.242,0,0,0,2.332-.976l31.185-31.185a3.209,3.209,0,0,0,0-4.61L66.938,103.872c-7.051-7.051-11.5-15.077-12.42-22.616-.976-7.376,1.464-13.993,7.1-19.687a22.845,22.845,0,0,1,19.524-6.834c7.756.922,15.837,5.261,22.779,12.2l88.294,88.294a3.209,3.209,0,0,0,4.61,0l31.185-31.185A3.274,3.274,0,0,0,228.015,119.383Zm-101.093,64.16L137.877,194.5,121.715,210.66,110.705,199.7ZM194.5,137.877l-10.955-10.955L199.7,110.76l10.955,10.955Z" transform="translate(53.281 200.781)" fill="#fff"/>
  </g>
</svg>
