<svg xmlns="http://www.w3.org/2000/svg" width="135.159" height="62.47" viewBox="0 0 135.159 62.47">
  <g id="Group_1861" data-name="Group 1861" transform="translate(-124.927 -212.571)">
    <g id="Group_2552" data-name="Group 2552" transform="translate(154.237 238.176)">
      <g id="Group_2551" data-name="Group 2551">
        <path id="Path_4942" data-name="Path 4942" d="M200.4,301.027a7.053,7.053,0,0,1-2.257-1.522,6.945,6.945,0,0,1-1.529-2.249,7,7,0,0,1,0-5.431,7.132,7.132,0,0,1,3.786-3.792,7.026,7.026,0,0,1,5.423.007,7.071,7.071,0,0,1,2.257,1.515,7.236,7.236,0,0,1,1.514,2.271,7.025,7.025,0,0,1,.008,5.423,7.081,7.081,0,0,1-3.779,3.771,7.024,7.024,0,0,1-5.423.008Zm3.945-3.555a3.125,3.125,0,0,0,1.024-.678,3.226,3.226,0,0,0,.692-1.024,3.189,3.189,0,0,0,0-2.452,3.243,3.243,0,0,0-.692-1.023,3.131,3.131,0,0,0-1.024-.678,3.219,3.219,0,0,0-1.241-.245,3.186,3.186,0,0,0-2.236.923,3.328,3.328,0,0,0-.7,1.023,3.1,3.1,0,0,0,0,2.452,3.31,3.31,0,0,0,.7,1.024,3.185,3.185,0,0,0,2.236.923A3.219,3.219,0,0,0,204.341,297.473Z" transform="translate(-196.062 -282.227)" fill="#fff"/>
        <path id="Path_4943" data-name="Path 4943" d="M241.942,301.027a7.053,7.053,0,0,1-2.257-1.522,6.958,6.958,0,0,1-1.529-2.249,7.012,7.012,0,0,1,0-5.431,7.134,7.134,0,0,1,3.786-3.792,7.026,7.026,0,0,1,5.423.007,7.071,7.071,0,0,1,2.257,1.515,7.236,7.236,0,0,1,1.514,2.271,7.025,7.025,0,0,1,.008,5.423,7.081,7.081,0,0,1-3.779,3.771,7.024,7.024,0,0,1-5.423.008Zm3.945-3.555a3.125,3.125,0,0,0,1.024-.678,3.219,3.219,0,0,0,.692-1.024,3.189,3.189,0,0,0,0-2.452,3.236,3.236,0,0,0-.692-1.023,3.131,3.131,0,0,0-1.024-.678,3.217,3.217,0,0,0-1.241-.245,3.184,3.184,0,0,0-2.235.923,3.321,3.321,0,0,0-.7,1.023,3.1,3.1,0,0,0,0,2.452,3.3,3.3,0,0,0,.7,1.024,3.183,3.183,0,0,0,2.235.923A3.217,3.217,0,0,0,245.887,297.473Z" transform="translate(-220.491 -282.227)" fill="#fff"/>
        <path id="Path_4944" data-name="Path 4944" d="M283.486,293.721a7.057,7.057,0,0,1-2.257-1.522,6.949,6.949,0,0,1-1.529-2.249,7.006,7.006,0,0,1,0-5.431,7.132,7.132,0,0,1,3.786-3.792,6.853,6.853,0,0,1,2.7-.541,5.372,5.372,0,0,1,1.969.3,2.874,2.874,0,0,1,1.233.923v-4.355a1.994,1.994,0,0,1,.548-1.428,1.788,1.788,0,0,1,1.356-.562,1.959,1.959,0,0,1,1.37.562,2.083,2.083,0,0,1,.411.642,2.044,2.044,0,0,1,.152.786v10.182a6.875,6.875,0,0,1-.541,2.7,7.081,7.081,0,0,1-3.779,3.771,7.024,7.024,0,0,1-5.423.008Zm3.945-3.555a3.126,3.126,0,0,0,1.024-.678,3.213,3.213,0,0,0,.692-1.024,3.189,3.189,0,0,0,0-2.452,3.229,3.229,0,0,0-.692-1.023,3.131,3.131,0,0,0-1.024-.678,3.217,3.217,0,0,0-1.241-.245,3.184,3.184,0,0,0-2.235.923,3.328,3.328,0,0,0-.7,1.023,3.1,3.1,0,0,0,0,2.452,3.311,3.311,0,0,0,.7,1.024,3.183,3.183,0,0,0,2.235.923A3.218,3.218,0,0,0,287.431,290.166Z" transform="translate(-244.917 -274.921)" fill="#fff"/>
        <path id="Path_4945" data-name="Path 4945" d="M324.643,278.2a2.151,2.151,0,0,1-.454-.663,1.9,1.9,0,0,1-.166-.778,1.992,1.992,0,0,1,.62-1.457,1.963,1.963,0,0,1,1.442-.592,2.094,2.094,0,0,1,.794.152,2.039,2.039,0,0,1,.663,3.338,2.06,2.06,0,0,1-.663.447,2.016,2.016,0,0,1-.794.159A1.967,1.967,0,0,1,324.643,278.2Zm.7,15.7a2.044,2.044,0,0,1-1.046-1.024,1.756,1.756,0,0,1-.158-.728V281.882a1.761,1.761,0,0,1,.158-.728,1.919,1.919,0,0,1,.433-.613,1.9,1.9,0,0,1,.627-.41,1.971,1.971,0,0,1,.757-.152,1.835,1.835,0,0,1,.728.152,1.937,1.937,0,0,1,.612.41,1.774,1.774,0,0,1,.4.606,1.987,1.987,0,0,1,.137.735v10.269a1.83,1.83,0,0,1-.152.728,1.921,1.921,0,0,1-1.017,1.024,1.805,1.805,0,0,1-.735.152A1.857,1.857,0,0,1,325.342,293.9Z" transform="translate(-271.299 -274.714)" fill="#fff"/>
        <path id="Path_4946" data-name="Path 4946" d="M347.5,301.027a7.054,7.054,0,0,1-2.257-1.522,6.95,6.95,0,0,1-1.529-2.249,7.007,7.007,0,0,1,0-5.431,7.131,7.131,0,0,1,3.786-3.792,6.985,6.985,0,0,1,7.636,1.493,7.083,7.083,0,0,1,2.106,4.9v5.178a1.883,1.883,0,0,1-.563,1.385,1.968,1.968,0,0,1-1.4.576,1.808,1.808,0,0,1-1.616-.908,7.011,7.011,0,0,1-3.461.908A6.85,6.85,0,0,1,347.5,301.027Zm3.945-3.555a3.117,3.117,0,0,0,1.024-.678,3.227,3.227,0,0,0,.693-1.024,3.189,3.189,0,0,0,0-2.452,3.244,3.244,0,0,0-.693-1.023,3.122,3.122,0,0,0-1.024-.678,3.215,3.215,0,0,0-1.241-.245,3.186,3.186,0,0,0-2.236.923,3.319,3.319,0,0,0-.7,1.023,3.1,3.1,0,0,0,0,2.452,3.3,3.3,0,0,0,.7,1.024,3.185,3.185,0,0,0,2.236.923A3.215,3.215,0,0,0,351.444,297.473Z" transform="translate(-282.555 -282.227)" fill="#fff"/>
        <path id="Path_4947" data-name="Path 4947" d="M389.073,301.265a1.819,1.819,0,0,1-.621-.4,1.933,1.933,0,0,1-.433-.606,1.748,1.748,0,0,1-.159-.736v-4.847a7.2,7.2,0,0,1,.628-2.747,7.5,7.5,0,0,1,1.594-2.3,7.423,7.423,0,0,1,2.3-1.543,7.254,7.254,0,0,1,2.761-.591h.115a1.982,1.982,0,0,1,1.464.526,1.989,1.989,0,0,1-.05,2.748,1.985,1.985,0,0,1-.642.4,2.1,2.1,0,0,1-.772.144h-.087a3.389,3.389,0,0,0-1.326.289,3.446,3.446,0,0,0-1.1.764,3.586,3.586,0,0,0-.764,1.124,3.514,3.514,0,0,0-.289,1.342v4.687a1.926,1.926,0,0,1-.144.75,1.712,1.712,0,0,1-.4.591,1.8,1.8,0,0,1-1.327.548A1.984,1.984,0,0,1,389.073,301.265Z" transform="translate(-308.835 -282.227)" fill="#fff"/>
        <path id="Path_4948" data-name="Path 4948" d="M429.814,304.974a1.965,1.965,0,0,1-.606-.411,1.844,1.844,0,0,1-.548-1.356V299.5a5.719,5.719,0,0,1-3.288,1.082,6.987,6.987,0,0,1-2.762-.555,7.254,7.254,0,0,1-3.85-3.851,7.016,7.016,0,0,1-.555-2.776v-5.221a1.964,1.964,0,0,1,.152-.757,1.89,1.89,0,0,1,.41-.628,1.852,1.852,0,0,1,1.356-.562,1.92,1.92,0,0,1,.75.152,2.071,2.071,0,0,1,.634.41,1.891,1.891,0,0,1,.411.628,1.963,1.963,0,0,1,.152.757V293.4a3.134,3.134,0,0,0,.26,1.261,3.4,3.4,0,0,0,.721,1.061,3.513,3.513,0,0,0,1.06.728,3.071,3.071,0,0,0,2.5,0,3.479,3.479,0,0,0,1.067-.728,3.4,3.4,0,0,0,.721-1.061,3.133,3.133,0,0,0,.26-1.261v-5.221a1.97,1.97,0,0,1,.151-.757,1.892,1.892,0,0,1,.412-.628,1.909,1.909,0,0,1,2.1-.41,2.1,2.1,0,0,1,.627.41,1.98,1.98,0,0,1,.418.628,1.9,1.9,0,0,1,.159.757v15.028a1.833,1.833,0,0,1-.151.736,2.017,2.017,0,0,1-.426.62,2.065,2.065,0,0,1-.642.411,1.966,1.966,0,0,1-.758.152A1.8,1.8,0,0,1,429.814,304.974Z" transform="translate(-326.676 -281.486)" fill="#fff"/>
      </g>
    </g>
    <path id="Path_4949" data-name="Path 4949" d="M149.429,275.041a8.6,8.6,0,0,0-1.708-.623,41.277,41.277,0,0,1-4.278-2.252c-8.36-4.9-15.8-13.151-17.662-22.916-.976-5.123-1.412-10.811.342-15.807a30.555,30.555,0,0,1,8.314-12.081,37.115,37.115,0,0,1,6.411-4.721,44.918,44.918,0,0,1,10.213-4.068c-2.447.675-5.306,2.639-7.284,4.14-7.6,5.766-14.2,13.761-12.651,23.842.4,2.555,1.578,5.842,4.352,6.866,3.23,1.193,5.875-1.746,7.836-3.871a51.4,51.4,0,0,1,8.356-7.7c1.5-1.04,3.5-1.549,4.877-2.66C150.2,242.421,145.3,254.3,146.6,265.7A26.775,26.775,0,0,0,149.429,275.041Z" transform="translate(0)" fill="#fff"/>
    <path id="Path_4950" data-name="Path 4950" d="M158.534,257.158c-2.037,3.979-6.136,5.953-9.158,4.407s-3.827-6.023-1.794-10,6.136-5.953,9.158-4.409S160.565,253.178,158.534,257.158Z" transform="translate(-12.66 -20.025)" fill="#fff"/>
  </g>
</svg>
