<svg xmlns="http://www.w3.org/2000/svg" width="15.239" height="35.637" viewBox="0 0 15.239 35.637">
  <g id="Icon_awesome-male" data-name="Icon awesome-male" transform="translate(1.5 1.5)" fill="none" opacity="0.5">
    <path d="M6.119,0A4.08,4.08,0,1,1,2.04,4.08,4.08,4.08,0,0,1,6.119,0m3.06,9.179H8.455a5.6,5.6,0,0,1-4.671,0H3.06A3.06,3.06,0,0,0,0,12.239v8.669a1.53,1.53,0,0,0,1.53,1.53H2.55v8.669a1.53,1.53,0,0,0,1.53,1.53h4.08a1.53,1.53,0,0,0,1.53-1.53V22.438h1.02a1.53,1.53,0,0,0,1.53-1.53V12.239A3.06,3.06,0,0,0,9.179,9.179Z" stroke="none"/>
    <path d="M 6.119476318359375 3.814697265625e-06 C 3.866366386413574 3.814697265625e-06 2.039826393127441 1.826534271240234 2.039826393127441 4.079652786254883 C 2.039826393127441 6.332763671875 3.866366386413574 8.159303665161133 6.119476318359375 8.159303665161133 C 8.372586250305176 8.159303665161133 10.19912624359131 6.332763671875 10.19912624359131 4.079652786254883 C 10.19912624359131 1.826534271240234 8.372586250305176 3.814697265625e-06 6.119476318359375 3.814697265625e-06 M 3.059736251831055 9.17921257019043 C 1.369866371154785 9.17921257019043 -3.814697265625e-06 10.5490837097168 -3.814697265625e-06 12.23895263671875 L -3.814697265625e-06 20.9082145690918 C -3.814697265625e-06 21.75314331054688 0.6849365234375 22.43808364868164 1.529866218566895 22.43808364868164 L 2.549786567687988 22.43808364868164 L 2.549786567687988 31.10733413696289 C 2.549786567687988 31.95227432250977 3.234716415405273 32.63720321655273 4.079646110534668 32.63720321655273 L 8.159306526184082 32.63720321655273 C 9.004236221313477 32.63720321655273 9.689166069030762 31.95227432250977 9.689166069030762 31.10733413696289 L 9.689166069030762 22.43808364868164 L 10.70908641815186 22.43808364868164 C 11.55401611328125 22.43808364868164 12.23895645141602 21.75314331054688 12.23895645141602 20.9082145690918 L 12.23895645141602 12.23895263671875 C 12.23895645141602 10.5490837097168 10.86908626556396 9.17921257019043 9.179216384887695 9.17921257019043 L 8.455076217651367 9.17921257019043 C 7.007376670837402 9.844892501831055 5.29398775100708 9.873645782470703 3.783876419067383 9.17921257019043 L 3.059736251831055 9.17921257019043 M 6.119476318359375 -1.499996185302734 C 9.19610595703125 -1.499996185302734 11.69912624359131 1.003023147583008 11.69912624359131 4.079652786254883 C 11.69912624359131 5.512434005737305 11.15627002716064 6.820829391479492 10.26545333862305 7.809940338134766 C 12.25710868835449 8.298391342163086 13.73895645141602 10.09883308410645 13.73895645141602 12.23895263671875 L 13.73895645141602 20.9082145690918 C 13.73895645141602 22.41553688049316 12.63249492645264 23.66931915283203 11.18916606903076 23.90008926391602 L 11.18916606903076 31.10733413696289 C 11.18916606903076 32.77801513671875 9.829976081848145 34.13720321655273 8.159306526184082 34.13720321655273 L 4.079646110534668 34.13720321655273 C 2.408976554870605 34.13720321655273 1.049786567687988 32.77801513671875 1.049786567687988 31.10733413696289 L 1.049786567687988 23.90008926391602 C -0.3935422897338867 23.66931915283203 -1.500003814697266 22.41553688049316 -1.500003814697266 20.9082145690918 L -1.500003814697266 12.23895263671875 C -1.500003814697266 10.09883308410645 -0.01815605163574219 8.298391342163086 1.973499298095703 7.809940338134766 C 1.082682609558105 6.820829391479492 0.5398263931274414 5.512434005737305 0.5398263931274414 4.079652786254883 C 0.5398263931274414 1.003023147583008 3.0428466796875 -1.499996185302734 6.119476318359375 -1.499996185302734 Z" stroke="none" fill="#1c9d87"/>
  </g>
</svg>
