<svg xmlns="http://www.w3.org/2000/svg" width="28.113" height="38.89" viewBox="0 0 28.113 38.89">
  <g id="Group_1755" data-name="Group 1755" transform="translate(-23.887 -36.11)">
    <g id="Group_1753" data-name="Group 1753" transform="translate(-231.744 40.925)" opacity="0.5">
      <g id="Group_1751" data-name="Group 1751" transform="translate(255.514 -4.879)">
        <path id="Path_4004" data-name="Path 4004" d="M284.016,29.766A13.343,13.343,0,0,1,276.7,28.4a.473.473,0,0,0-.361-.046c-.051.014-5.163,1.384-9.279.47-2.566-.571-4.987-2.378-6.754-3.7-.238-.177-.462-.345-.673-.5a5.394,5.394,0,0,0-1.152-.541c-.182-.07-.431-.165-.484-.2a.185.185,0,0,1-.072-.15v-1.1c.023-.872,3.678-14.287,4.245-15.994a.369.369,0,0,1,.109-.079l7.235-3.3L271.851,6.3a.419.419,0,0,1-.026.524l-2.311,2.591a.412.412,0,0,1-.564.056l-.934-.861A.478.478,0,0,0,267.6,8.5a.5.5,0,0,0-.345.263,2.6,2.6,0,0,1-1.507.347l-.235-.024a.471.471,0,0,0-.464.242.476.476,0,0,0,.039.521c.2.26.357.468.446.587L266,18.3a3.461,3.461,0,0,1-.615,1.5.475.475,0,0,0,.143.929c.539,0,1-.709,1.365-2.091a5.816,5.816,0,0,1,7.339.06,3.76,3.76,0,0,1,1.278,2.041.475.475,0,0,0,.951-.01,3.97,3.97,0,0,0-1.27-2.4,6.063,6.063,0,0,1,3.936-2.427,6.9,6.9,0,0,1,4.639,1.395.475.475,0,0,0,.6-.736,7.753,7.753,0,0,0-5.346-1.6,6.948,6.948,0,0,0-4.551,2.74,6.757,6.757,0,0,0-7.567-.221l-.426-7.231a.471.471,0,0,0-.069-.22,3.12,3.12,0,0,0,1.3-.4l.613.564a1.362,1.362,0,0,0,1.9-.137l2.311-2.591a1.378,1.378,0,0,0,.077-1.727l-2.576-3.354a.476.476,0,0,0-.575-.143l-7.572,3.459a1.155,1.155,0,0,0-.613.626c-.269.808-4.3,15.192-4.3,16.312v1.1a1.134,1.134,0,0,0,.436.9,3.009,3.009,0,0,0,.73.338,5.169,5.169,0,0,1,.93.421c.209.153.431.319.666.494,1.836,1.372,4.351,3.25,7.117,3.865a23.256,23.256,0,0,0,9.549-.432,14.25,14.25,0,0,0,6.266,1.471,13.115,13.115,0,0,0,1.453-.08.475.475,0,1,0-.105-.944Zm0,0" transform="translate(-256.605 -1.86)" fill="#1c9d87" stroke="#1c9d87" stroke-width="0.5"/>
        <path id="Path_4005" data-name="Path 4005" d="M675.8,378.7a.475.475,0,0,0-.948.052c0,.317.234,1.393,3.249,1.895a.5.5,0,0,0,.079.006.475.475,0,0,0,.078-.944c-2.109-.351-2.43-.946-2.458-1.01Zm0,0" transform="translate(-650.717 -356.559)" fill="#1c9d87" stroke="#1c9d87" stroke-width="0.5"/>
      </g>
      <path id="Path_4009" data-name="Path 4009" d="M367.144,373.266c-6.226,1.333-8.89-2.926-9-3.108a.475.475,0,0,0-.815.49A8.156,8.156,0,0,0,359.734,373a9.217,9.217,0,0,0,5.112,1.471,11.909,11.909,0,0,0,2.5-.275.475.475,0,0,0-.2-.93Zm0,0" transform="translate(-95.675 -353.56)" fill="#1c9d87" stroke="#1c9d87" stroke-width="0.5"/>
    </g>
    <g id="Group_1754" data-name="Group 1754" transform="translate(-15.387 23.576)">
      <rect id="Rectangle_1501" data-name="Rectangle 1501" width="24" height="13" rx="1.5" transform="translate(41.289 38.424)" fill="#8ccdc2"/>
      <g id="Path_4010" data-name="Path 4010" transform="translate(44.497 47.378)" fill="#fff">
        <path d="M 15.01036357879639 0.8979154229164124 C 14.17281341552734 0.8979154229164124 13.50845336914062 0.6803154349327087 13.03575420379639 0.2511554360389709 C 12.56114387512207 -0.1797445714473724 12.30796337127686 -0.8242145776748657 12.28324413299561 -1.664354562759399 C 12.27725410461426 -1.838214516639709 12.27421379089355 -2.096674680709839 12.27421379089355 -2.432044506072998 C 12.27421379089355 -2.773384571075439 12.27725410461426 -3.034874677658081 12.28326416015625 -3.209234476089478 C 12.3079833984375 -4.030954360961914 12.56718349456787 -4.67234468460083 13.0536642074585 -5.11515474319458 C 13.53830337524414 -5.556314468383789 14.19663333892822 -5.780004501342773 15.01036357879639 -5.780004501342773 C 15.82396411895752 -5.780004501342773 16.48373413085938 -5.556384563446045 16.97133445739746 -5.115364551544189 C 17.4609432220459 -4.672534465789795 17.72174453735352 -4.031074523925781 17.74646377563477 -3.208804607391357 C 17.7584342956543 -2.861734628677368 17.76450347900391 -2.600254535675049 17.76450347900391 -2.432044506072998 C 17.76450347900391 -2.269814491271973 17.7584342956543 -2.011354684829712 17.7464542388916 -1.663854598999023 C 17.71557426452637 -0.8237845897674561 17.45937347412109 -0.1795645654201508 16.98496437072754 0.2511554360389709 C 16.51226425170898 0.6803154349327087 15.84791374206543 0.8979154229164124 15.01036357879639 0.8979154229164124 Z M 15.01036357879639 -4.545334339141846 C 14.63891410827637 -4.545334339141846 14.35022354125977 -4.435864448547363 14.1278133392334 -4.210684776306152 C 13.9071741104126 -3.987284660339355 13.78670406341553 -3.635864496231079 13.76972389221191 -3.166194677352905 C 13.76380348205566 -2.994374513626099 13.76079368591309 -2.750344514846802 13.76079368591309 -2.441044569015503 C 13.76079368591309 -2.13768458366394 13.76380348205566 -1.893614530563354 13.76973342895508 -1.715604543685913 C 13.78671360015869 -1.245974540710449 13.90582370758057 -0.8944045901298523 14.12376403808594 -0.6709545850753784 C 14.34309387207031 -0.4460745751857758 14.6331033706665 -0.3367545604705811 15.01036357879639 -0.3367545604705811 C 15.387864112854 -0.3367545604705811 15.67949390411377 -0.446224570274353 15.90190410614014 -0.6714045405387878 C 16.12254333496094 -0.8947945833206177 16.24301338195801 -1.246214628219604 16.25999450683594 -1.715884566307068 C 16.27188301086426 -2.072714567184448 16.27792358398438 -2.316784620285034 16.27792358398438 -2.441044569015503 C 16.27792358398438 -2.577214479446411 16.27188301086426 -2.821244478225708 16.25998306274414 -3.166354656219482 C 16.24301338195801 -3.635864496231079 16.12254333496094 -3.987284660339355 15.90190410614014 -4.210684776306152 C 15.67949390411377 -4.435864448547363 15.387864112854 -4.545334339141846 15.01036357879639 -4.545334339141846 Z M 11.39352416992188 0.8079354166984558 L 10.57479381561279 0.8079354166984558 C 10.45546340942383 0.8079354166984558 10.35991382598877 0.7790754437446594 10.29079341888428 0.7221654057502747 C 10.22997379302979 0.6720654368400574 10.17482376098633 0.60150545835495 10.12685394287109 0.512425422668457 L 8.994860649108887 -1.567294597625732 L 7.903683662414551 -1.567294597625732 L 7.903683662414551 0.4920054376125336 C 7.903683662414551 0.5777654051780701 7.875013828277588 0.6521254181861877 7.818483829498291 0.7130054235458374 C 7.760803699493408 0.775115430355072 7.681023597717285 0.8079354166984558 7.587753772735596 0.8079354166984558 L 6.76901388168335 0.8079354166984558 C 6.683063507080078 0.8079354166984558 6.605723857879639 0.7760354280471802 6.545363903045654 0.7156854271888733 C 6.484983921051025 0.6552954316139221 6.453083515167236 0.577955424785614 6.453083515167236 0.4920054376125336 L 6.453083515167236 -5.365104675292969 C 6.453083515167236 -5.456824779510498 6.481753826141357 -5.534204483032227 6.538293838500977 -5.595094680786133 C 6.595953941345215 -5.657204627990723 6.67573356628418 -5.690024375915527 6.76901388168335 -5.690024375915527 L 9.099264144897461 -5.690024375915527 C 9.851344108581543 -5.690024375915527 10.45236396789551 -5.509854793548584 10.88562393188477 -5.154514789581299 C 11.3248233795166 -4.794304370880127 11.54751396179199 -4.277904510498047 11.54751396179199 -3.619664669036865 C 11.54751396179199 -3.162524461746216 11.43374347686768 -2.772104501724243 11.20937347412109 -2.459234476089478 C 11.0067892074585 -2.176750183105469 10.7304573059082 -1.962855339050293 10.38689041137695 -1.822235345840454 L 11.64225387573242 0.3703454434871674 L 11.64366340637207 0.372795432806015 L 11.64492416381836 0.3753254413604736 C 11.66983413696289 0.4251554310321808 11.68246364593506 0.473505437374115 11.68246364593506 0.5190054178237915 C 11.68246364593506 0.6006154417991638 11.65111351013184 0.6726954579353333 11.5918140411377 0.7274354100227356 C 11.53396415710449 0.7808454036712646 11.46724414825439 0.8079354166984558 11.39352416992188 0.8079354166984558 Z M 7.903683662414551 -2.78396463394165 L 9.072273254394531 -2.78396463394165 C 9.405333518981934 -2.78396463394165 9.656983375549316 -2.857244491577148 9.820233345031738 -3.001764535903931 C 9.982193946838379 -3.145144462585449 10.06092357635498 -3.350204467773438 10.06092357635498 -3.628664493560791 C 10.06092357635498 -3.907854557037354 9.981753349304199 -4.116244792938232 9.818883895874023 -4.265774726867676 C 9.655834197998047 -4.415454387664795 9.404633522033691 -4.491354465484619 9.072273254394531 -4.491354465484619 L 7.903683662414551 -4.491354465484619 L 7.903683662414551 -2.78396463394165 Z M 1.694653749465942 0.8079354166984558 L 0.8399337530136108 0.8079354166984558 C 0.7539737224578857 0.8079354166984558 0.6766337156295776 0.7760354280471802 0.6162737011909485 0.715675413608551 C 0.5559137463569641 0.6553154587745667 0.5240037441253662 0.5779654383659363 0.5240037441253662 0.4920054376125336 L 0.5240037441253662 -5.365104675292969 C 0.5240037441253662 -5.45683479309082 0.5526737570762634 -5.534214496612549 0.6092037558555603 -5.595094680786133 C 0.6668837070465088 -5.657204627990723 0.7466637492179871 -5.690024375915527 0.8399337530136108 -5.690024375915527 L 3.251153707504272 -5.690024375915527 C 3.991253614425659 -5.690024375915527 4.584683895111084 -5.5113844871521 5.01495361328125 -5.159064769744873 C 5.4512038230896 -4.801854610443115 5.672403812408447 -4.274844646453857 5.672403812408447 -3.592674493789673 C 5.672403812408447 -2.910294532775879 5.452583789825439 -2.386204481124878 5.019053936004639 -2.03495454788208 C 4.591853618621826 -1.688824534416199 3.99704384803772 -1.513314604759216 3.251153707504272 -1.513314604759216 L 2.010583639144897 -1.513314604759216 L 2.010583639144897 0.4920054376125336 C 2.010583639144897 0.5777654051780701 1.981913685798645 0.6521254181861877 1.925383687019348 0.7130054235458374 C 1.867703676223755 0.775115430355072 1.787923693656921 0.8079354166984558 1.694653749465942 0.8079354166984558 Z M 1.992593765258789 -2.711984634399414 L 3.206163644790649 -2.711984634399414 C 3.527233839035034 -2.711984634399414 3.774313688278198 -2.786754608154297 3.940543651580811 -2.93421459197998 C 4.105583667755127 -3.080624580383301 4.185813903808594 -3.2960045337677 4.185813903808594 -3.592674493789673 C 4.185813903808594 -3.879284620285034 4.107303619384766 -4.09581470489502 3.945793628692627 -4.254634380340576 C 3.786053657531738 -4.411714553833008 3.537203788757324 -4.491354465484619 3.206163644790649 -4.491354465484619 L 1.992593765258789 -4.491354465484619 L 1.992593765258789 -2.711984634399414 Z" stroke="none"/>
        <path d="M 15.01036357879639 0.7979154586791992 C 15.82609367370605 0.7979154586791992 16.46189308166504 0.5909754037857056 16.91774368286133 0.1771154254674911 C 17.37359428405762 -0.2367545664310455 17.61652374267578 -0.8515545725822449 17.64651298522949 -1.66729462146759 C 17.65850448608398 -2.015184640884399 17.66450309753418 -2.270094633102417 17.66450309753418 -2.432044506072998 C 17.66450309753418 -2.599994659423828 17.65850448608398 -2.857904672622681 17.64651298522949 -3.2057945728302 C 17.62252426147461 -4.00353479385376 17.37510299682617 -4.615344524383545 16.90425300598145 -5.041204452514648 C 16.43340301513672 -5.467074394226074 15.80210399627686 -5.680004596710205 15.01036357879639 -5.680004596710205 C 14.21861362457275 -5.680004596710205 13.58882331848145 -5.467074394226074 13.12097358703613 -5.041204452514648 C 12.65312385559082 -4.615344524383545 12.40720367431641 -4.00353479385376 12.38320350646973 -3.2057945728302 C 12.37721347808838 -3.031854629516602 12.37421417236328 -2.773934602737427 12.37421417236328 -2.432044506072998 C 12.37421417236328 -2.096154451370239 12.37721347808838 -1.841234564781189 12.38320350646973 -1.66729462146759 C 12.40720367431641 -0.8515545725822449 12.64712333679199 -0.2367545664310455 13.10297393798828 0.1771154254674911 C 13.55882358551025 0.5909754037857056 14.19462394714355 0.7979154586791992 15.01036357879639 0.7979154586791992 M 15.01036357879639 -4.645334720611572 C 15.41223335266113 -4.645334720611572 15.73312377929688 -4.523874759674072 15.97305393218994 -4.280954360961914 C 16.21297454833984 -4.038024425506592 16.34193420410156 -3.667644500732422 16.35992431640625 -3.169804573059082 C 16.37192344665527 -2.821924686431885 16.3779239654541 -2.578994512557983 16.3779239654541 -2.441044569015503 C 16.3779239654541 -2.315084457397461 16.37192344665527 -2.072164535522461 16.35992431640625 -1.712274551391602 C 16.34193420410156 -1.214444518089294 16.21297454833984 -0.8440545797348022 15.97305393218994 -0.6011345982551575 C 15.73312377929688 -0.3582145571708679 15.41223335266113 -0.2367545664310455 15.01036357879639 -0.2367545664310455 C 14.60849380493164 -0.2367545664310455 14.28909397125244 -0.3582145571708679 14.05217361450195 -0.6011345982551575 C 13.8152437210083 -0.8440545797348022 13.68778419494629 -1.214444518089294 13.6697940826416 -1.712274551391602 C 13.66379356384277 -1.892224550247192 13.66079330444336 -2.135144472122192 13.66079330444336 -2.441044569015503 C 13.66079330444336 -2.752944469451904 13.66379356384277 -2.995864629745483 13.6697940826416 -3.169804573059082 C 13.68778419494629 -3.667644500732422 13.81674385070801 -4.038024425506592 14.05666351318359 -4.280954360961914 C 14.29659366607666 -4.523874759674072 14.61448383331299 -4.645334720611572 15.01036357879639 -4.645334720611572 M 11.39352416992188 0.7079354524612427 C 11.44151401519775 0.7079354524612427 11.48500347137451 0.6899454593658447 11.5239839553833 0.6539554595947266 C 11.56297397613525 0.6179654598236084 11.58246326446533 0.5729854106903076 11.58246326446533 0.5190054178237915 C 11.58246326446533 0.4890154302120209 11.57346343994141 0.4560254216194153 11.55547332763672 0.4200354218482971 L 10.24189376831055 -1.874224543571472 C 10.61977386474609 -2.006184577941895 10.91518402099609 -2.220614671707153 11.12811374664307 -2.51751446723938 C 11.34104347229004 -2.814424514770508 11.44751358032227 -3.181804656982422 11.44751358032227 -3.619664669036865 C 11.44751358032227 -4.249464511871338 11.23907375335693 -4.735304355621338 10.82221412658691 -5.077194690704346 C 10.40534400939941 -5.419084548950195 9.831033706665039 -5.590024471282959 9.099264144897461 -5.590024471282959 L 6.76901388168335 -5.590024471282959 C 6.703043937683105 -5.590024471282959 6.650553703308105 -5.569034576416016 6.611573696136475 -5.527054786682129 C 6.572583675384521 -5.485064506530762 6.553083896636963 -5.431074619293213 6.553083896636963 -5.365104675292969 L 6.553083896636963 0.4920054376125336 C 6.553083896636963 0.5519854426383972 6.574083805084229 0.6029754281044006 6.616063594818115 0.6449654102325439 C 6.658053874969482 0.6869454383850098 6.709033966064453 0.7079354524612427 6.76901388168335 0.7079354524612427 L 7.587753772735596 0.7079354524612427 C 7.653733730316162 0.7079354524612427 7.70621395111084 0.6869454383850098 7.745203495025635 0.6449654102325439 C 7.784193515777588 0.6029754281044006 7.803683757781982 0.5519854426383972 7.803683757781982 0.4920054376125336 L 7.803683757781982 -1.66729462146759 L 9.05428409576416 -1.66729462146759 L 10.21490383148193 0.4650154411792755 C 10.2568941116333 0.5429954528808594 10.30338382720947 0.6029754281044006 10.35436344146729 0.6449654102325439 C 10.40534400939941 0.6869454383850098 10.4788236618042 0.7079354524612427 10.57479381561279 0.7079354524612427 L 11.39352416992188 0.7079354524612427 M 7.803683757781982 -4.591354370117188 L 9.072273254394531 -4.591354370117188 C 9.432164192199707 -4.591354370117188 9.703574180603027 -4.50737476348877 9.886513710021973 -4.339434623718262 C 10.06945419311523 -4.171484470367432 10.16092395782471 -3.934564590454102 10.16092395782471 -3.628664493560791 C 10.16092395782471 -3.322754621505737 10.06945419311523 -3.088834524154663 9.886513710021973 -2.926884651184082 C 9.703574180603027 -2.764934539794922 9.432164192199707 -2.683964490890503 9.072273254394531 -2.683964490890503 L 7.803683757781982 -2.683964490890503 L 7.803683757781982 -4.591354370117188 M 1.694653749465942 0.7079354524612427 C 1.760633707046509 0.7079354524612427 1.813113689422607 0.6869454383850098 1.852103710174561 0.6449654102325439 C 1.891093730926514 0.6029754281044006 1.910583734512329 0.5519854426383972 1.910583734512329 0.4920054376125336 L 1.910583734512329 -1.613314628601074 L 3.251153707504272 -1.613314628601074 C 3.976913690567017 -1.613314628601074 4.545233726501465 -1.779754519462585 4.956103801727295 -2.112654685974121 C 5.366973876953125 -2.445544481277466 5.572403907775879 -2.938884496688843 5.572403907775879 -3.592674493789673 C 5.572403907775879 -4.246464729309082 5.365473747253418 -4.742804527282715 4.951603889465332 -5.081694602966309 C 4.537733554840088 -5.420584678649902 3.970923662185669 -5.590024471282959 3.251153707504272 -5.590024471282959 L 0.8399337530136108 -5.590024471282959 C 0.7739537358283997 -5.590024471282959 0.721473753452301 -5.569034576416016 0.6824837327003479 -5.527054786682129 C 0.6434937119483948 -5.485064506530762 0.6240037083625793 -5.431074619293213 0.6240037083625793 -5.365104675292969 L 0.6240037083625793 0.4920054376125336 C 0.6240037083625793 0.5519854426383972 0.6449937224388123 0.6029754281044006 0.6869837045669556 0.6449654102325439 C 0.7289637327194214 0.6869454383850098 0.7799537181854248 0.7079354524612427 0.8399337530136108 0.7079354524612427 L 1.694653749465942 0.7079354524612427 M 1.892593741416931 -4.591354370117188 L 3.206163644790649 -4.591354370117188 C 3.566053628921509 -4.591354370117188 3.835963726043701 -4.502874374389648 4.015903949737549 -4.325934410095215 C 4.195843696594238 -4.148994445800781 4.285813808441162 -3.904574632644653 4.285813808441162 -3.592674493789673 C 4.285813808441162 -3.268774509429932 4.192843914031982 -3.024354457855225 4.006903648376465 -2.859404563903809 C 3.820973634719849 -2.694464683532715 3.554053783416748 -2.611984491348267 3.206163644790649 -2.611984491348267 L 1.892593741416931 -2.611984491348267 L 1.892593741416931 -4.591354370117188 M 15.01036357879639 0.9979154467582703 C 14.14718341827393 0.9979154467582703 13.46021366119385 0.7715754508972168 12.96853351593018 0.3251954317092896 C 12.4730339050293 -0.1246845722198486 12.20883369445801 -0.7930745482444763 12.18329334259033 -1.661414623260498 C 12.17727375030518 -1.835914611816406 12.17421340942383 -2.095534563064575 12.17421340942383 -2.432044506072998 C 12.17421340942383 -2.774524450302124 12.17727375030518 -3.037174463272095 12.18332386016846 -3.212674617767334 C 12.2088737487793 -4.062094688415527 12.47906398773193 -4.727354526519775 12.98634338378906 -5.189104557037354 C 13.48998355865479 -5.647554397583008 14.17096328735352 -5.880004405975342 15.01036357879639 -5.880004405975342 C 15.84952354431152 -5.880004405975342 16.5318546295166 -5.64769458770752 17.03841400146484 -5.189534664154053 C 17.54899406433105 -4.727744579315186 17.82084465026855 -4.062334537506104 17.8464241027832 -3.211804628372192 C 17.85841369628906 -2.864034652709961 17.86450386047363 -2.601394653320312 17.86450386047363 -2.432044506072998 C 17.86450386047363 -2.268664598464966 17.85841369628906 -2.009054660797119 17.84639358520508 -1.660404562950134 C 17.81447410583496 -0.7922045588493347 17.54727363586426 -0.1243045702576637 17.05218315124512 0.3251954317092896 C 16.56050300598145 0.7715754508972168 15.87353420257568 0.9979154467582703 15.01036357879639 0.9979154467582703 Z M 15.01036357879639 -4.445334434509277 C 14.66702365875244 -4.445334434509277 14.40161418914795 -4.34559440612793 14.19895362854004 -4.140414714813232 C 13.99649333953857 -3.935404539108276 13.88570404052734 -3.606414556503296 13.86966419219971 -3.162584543228149 C 13.86378383636475 -2.992064476013184 13.86079406738281 -2.749194622039795 13.86079406738281 -2.441044569015503 C 13.86079406738281 -2.138784646987915 13.86378383636475 -1.895834565162659 13.86968326568604 -1.718934535980225 C 13.88572406768799 -1.275174617767334 13.99529361724854 -0.9458945393562317 14.19535350799561 -0.7407845854759216 C 14.39487361907959 -0.5362045764923096 14.66146373748779 -0.4367545545101166 15.01036357879639 -0.4367545545101166 C 15.35975360870361 -0.4367545545101166 15.62810325622559 -0.5364945530891418 15.8307638168335 -0.741674542427063 C 16.03322410583496 -0.9466745853424072 16.14401435852051 -1.275664567947388 16.16005325317383 -1.719494581222534 C 16.17190361022949 -2.074934482574463 16.17792320251465 -2.317884683609009 16.17792320251465 -2.441044569015503 C 16.17792320251465 -2.576074600219727 16.17190361022949 -2.818944454193115 16.16004371643066 -3.162914514541626 C 16.14401435852051 -3.606414556503296 16.03322410583496 -3.935404539108276 15.83075332641602 -4.140414714813232 C 15.62810325622559 -4.34559440612793 15.35975360870361 -4.445334434509277 15.01036357879639 -4.445334434509277 Z M 11.39352416992188 0.9079354405403137 L 10.57479381561279 0.9079354405403137 C 10.43166351318359 0.9079354405403137 10.31472396850586 0.8714054226875305 10.22722339630127 0.7993554472923279 C 10.15634346008301 0.7409754395484924 10.0929536819458 0.6603854298591614 10.03881359100342 0.5598354339599609 L 8.935442924499512 -1.467294573783875 L 8.003684043884277 -1.467294573783875 L 8.003684043884277 0.4920054376125336 C 8.003684043884277 0.6022554039955139 7.964983940124512 0.7022054195404053 7.891763687133789 0.7810554504394531 C 7.814663887023926 0.864065408706665 7.709543704986572 0.9079354405403137 7.587753772735596 0.9079354405403137 L 6.76901388168335 0.9079354405403137 C 6.6559739112854 0.9079354405403137 6.554183959960938 0.8659054040908813 6.474663734436035 0.7864054441452026 C 6.395113945007324 0.7068354487419128 6.353083610534668 0.6050454378128052 6.353083610534668 0.4920054376125336 L 6.353083610534668 -5.365104675292969 C 6.353083610534668 -5.481224536895752 6.391783714294434 -5.584284782409668 6.46501350402832 -5.663144588470459 C 6.542083740234375 -5.746144771575928 6.647213935852051 -5.790024757385254 6.76901388168335 -5.790024757385254 L 9.099264144897461 -5.790024757385254 C 9.875073432922363 -5.790024757385254 10.49742412567139 -5.602224349975586 10.94904327392578 -5.231834411621094 C 11.41251373291016 -4.851714611053467 11.6475133895874 -4.309304714202881 11.6475133895874 -3.619664669036865 C 11.6475133895874 -3.141194581985474 11.52744388580322 -2.731154680252075 11.2906436920166 -2.400954484939575 C 11.09780406951904 -2.132071971893311 10.84225463867188 -1.922342538833618 10.52894973754883 -1.775366187095642 L 11.73437404632568 0.3306154310703278 C 11.76628398895264 0.3944554328918457 11.78246402740479 0.4578454196453094 11.78246402740479 0.5190054178237915 C 11.78246402740479 0.6292654275894165 11.73999404907227 0.7267454266548157 11.65963363647461 0.8009154200553894 C 11.58381366729736 0.8709254264831543 11.49179363250732 0.9079354405403137 11.39352416992188 0.9079354405403137 Z M 8.003684043884277 -2.883964538574219 L 9.072273254394531 -2.883964538574219 C 9.380184173583984 -2.883964538574219 9.609523773193359 -2.948784589767456 9.75394344329834 -3.076634645462036 C 9.893223762512207 -3.199934482574463 9.96092414855957 -3.380504608154297 9.96092414855957 -3.628664493560791 C 9.96092414855957 -3.87827467918396 9.892343521118164 -4.062584400177002 9.751254081726074 -4.192104339599609 C 9.607234001159668 -4.324314594268799 9.378793716430664 -4.391354560852051 9.072273254394531 -4.391354560852051 L 8.003684043884277 -4.391354560852051 L 8.003684043884277 -2.883964538574219 Z M 1.694653749465942 0.9079354405403137 L 0.8399337530136108 0.9079354405403137 C 0.7268737554550171 0.9079354405403137 0.6250837445259094 0.8659054040908813 0.5455637574195862 0.7863854169845581 C 0.4660337269306183 0.7068654298782349 0.4240037202835083 0.6050654053688049 0.4240037202835083 0.4920054376125336 L 0.4240037202835083 -5.365104675292969 C 0.4240037202835083 -5.481234550476074 0.4627037346363068 -5.58429479598999 0.5359237194061279 -5.663144588470459 C 0.6130237579345703 -5.74615478515625 0.7181437015533447 -5.790024757385254 0.8399337530136108 -5.790024757385254 L 3.251153707504272 -5.790024757385254 C 4.014963626861572 -5.790024757385254 4.629703521728516 -5.603774547576904 5.078313827514648 -5.236434459686279 C 5.538873672485352 -4.859314441680908 5.772403717041016 -4.306264400482178 5.772403717041016 -3.592674493789673 C 5.772403717041016 -2.878654479980469 5.54012393951416 -2.328424453735352 5.082003593444824 -1.957254528999329 C 4.636533737182617 -1.596324563026428 4.020553588867188 -1.413314580917358 3.251153707504272 -1.413314580917358 L 2.110583782196045 -1.413314580917358 L 2.110583782196045 0.4920054376125336 C 2.110583782196045 0.6022554039955139 2.071883678436279 0.7022054195404053 1.998663783073425 0.7810554504394531 C 1.921563744544983 0.864065408706665 1.816443681716919 0.9079354405403137 1.694653749465942 0.9079354405403137 Z M 2.092593669891357 -2.811984539031982 L 3.206163644790649 -2.811984539031982 C 3.502043724060059 -2.811984539031982 3.726803779602051 -2.87827467918396 3.874183654785156 -3.00901460647583 C 4.016583919525146 -3.135354518890381 4.085813522338867 -3.326264619827271 4.085813522338867 -3.592674493789673 C 4.085813522338867 -3.851084470748901 4.017073631286621 -4.044284343719482 3.875673770904541 -4.183324337005615 C 3.735303640365601 -4.321364402770996 3.510043621063232 -4.391354560852051 3.206163644790649 -4.391354560852051 L 2.092593669891357 -4.391354560852051 L 2.092593669891357 -2.811984539031982 Z" stroke="none" fill="#fff"/>
      </g>
    </g>
  </g>
</svg>
