<svg xmlns="http://www.w3.org/2000/svg" xmlns:xlink="http://www.w3.org/1999/xlink" width="37" height="37"
  viewBox="0 0 37 37">
  <defs>
    <clipPath id="clip-path">
      <rect id="Rechteck_12224" data-name="Rechteck 12224" width="37" height="37" fill="#fff" />
    </clipPath>
  </defs>
  <g id="File_Format_Icons_1.0_" data-name="File Format Icons [1.0]" clip-path="url(#clip-path)">
    <g id="Gruppe_36779" data-name="Gruppe 36779" transform="translate(3.468)">
      <path id="Pfad_47119" data-name="Pfad 47119"
        d="M27.512,37H8.55A5.55,5.55,0,0,1,3,31.45V5.55A5.55,5.55,0,0,1,8.55,0H18.576A5.55,5.55,0,0,1,22.47,1.6l8.937,8.8a5.55,5.55,0,0,1,1.656,3.955v17.1A5.55,5.55,0,0,1,27.512,37Z"
        transform="translate(-3)" fill="#fff" />
      <path id="Pfad_47120" data-name="Pfad 47120"
        d="M27.419,36.212H8.456A4.856,4.856,0,0,1,3.6,31.356V5.456A4.856,4.856,0,0,1,8.456.6H18.482A4.856,4.856,0,0,1,21.889,2l8.937,8.8a4.856,4.856,0,0,1,1.449,3.46v17.1A4.856,4.856,0,0,1,27.419,36.212Z"
        transform="translate(-2.906 0.094)" fill="none" stroke="#cdd0d5" stroke-width="1.2" />
    </g>
    <path id="Pfad_47121" data-name="Pfad 47121" d="M18,1V8.863a3.7,3.7,0,0,0,3.7,3.7h7.862"
      transform="translate(2.813 0.156)" fill="none" stroke="#cdd0d5" stroke-width="1.2" />
    <g id="Gruppe_36780" data-name="Gruppe 36780" transform="translate(-0.925 15.262)">
      <path id="Pfad_47122" data-name="Pfad 47122"
        d="M0,17.469A3.469,3.469,0,0,1,3.469,14H24.281a3.469,3.469,0,0,1,3.469,3.469v9.25a3.469,3.469,0,0,1-3.469,3.469H3.469A3.469,3.469,0,0,1,0,26.719Z"
        transform="translate(0.925 -13.075)" fill="#df1c41" />
      <path id="Pfad_47123" data-name="Pfad 47123"
        d="M-.8,17.594A4.394,4.394,0,0,1,3.594,13.2H24.406A4.394,4.394,0,0,1,28.8,17.594H26.95a2.544,2.544,0,0,0-2.544-2.544H3.594A2.544,2.544,0,0,0,1.05,17.594ZM27.875,30.313h0Zm-24.281,0A4.394,4.394,0,0,1-.8,25.919V17.594A4.394,4.394,0,0,1,3.594,13.2v1.85A2.544,2.544,0,0,0,1.05,17.594v9.25c0,1.916,1.139,3.469,2.544,3.469ZM24.406,13.2A4.394,4.394,0,0,1,28.8,17.594v8.325a4.394,4.394,0,0,1-4.394,4.394h0c1.4,0,2.544-1.553,2.544-3.469v-9.25a2.544,2.544,0,0,0-2.544-2.544Z"
        transform="translate(0.8 -13.2)" fill="rgba(0,0,0,0.08)" />
      <path id="Pfad_47124" data-name="Pfad 47124"
        d="M3.631,25V17.6H6.406a2.937,2.937,0,0,1,1.431.318,2.119,2.119,0,0,1,.878.874,2.8,2.8,0,0,1,0,2.522,2.143,2.143,0,0,1-.885.871,3.016,3.016,0,0,1-1.442.314H4.549V21.4H6.208a1.7,1.7,0,0,0,.817-.173,1.094,1.094,0,0,0,.47-.477,1.51,1.51,0,0,0,.155-.7,1.488,1.488,0,0,0-.155-.694,1.056,1.056,0,0,0-.473-.466,1.735,1.735,0,0,0-.82-.17H4.972V25Zm9.259,0H10.383V17.6h2.558a3.807,3.807,0,0,1,1.893.444,2.971,2.971,0,0,1,1.221,1.268,4.275,4.275,0,0,1,.426,1.98,4.276,4.276,0,0,1-.43,1.987,2.972,2.972,0,0,1-1.232,1.275A3.924,3.924,0,0,1,12.891,25Zm-1.167-1.16h1.1a2.669,2.669,0,0,0,1.29-.282,1.8,1.8,0,0,0,.777-.849,3.4,3.4,0,0,0,.26-1.416,3.346,3.346,0,0,0-.26-1.409,1.773,1.773,0,0,0-.77-.842,2.555,2.555,0,0,0-1.257-.282H11.723ZM17.959,25V17.6H22.7v1.124H19.3v2.009h3.075v1.124H19.3V25Z"
        transform="translate(1.492 -12.512)" fill="#fff" />
    </g>
  </g>
</svg>