<svg xmlns="http://www.w3.org/2000/svg" width="23" height="12.285" viewBox="0 0 23 12.285">
  <path id="Subtraction_4" data-name="Subtraction 4" d="M20,12.285H3a3,3,0,0,1-3-3V3A3,3,0,0,1,3,0H20a3,3,0,0,1,3,3V9.285A3,3,0,0,1,20,12.285ZM16.728,3.208a2.563,2.563,0,0,0-1.69.527,1.954,1.954,0,0,0-.67,1.5c-.005.143-.008.358-.008.642s0,.492.008.634a1.933,1.933,0,0,0,.659,1.5,2.62,2.62,0,0,0,1.7.508,2.62,2.62,0,0,0,1.7-.508,1.933,1.933,0,0,0,.66-1.5c.01-.3.015-.5.015-.634s0-.341-.015-.642a1.93,1.93,0,0,0-.667-1.5A2.584,2.584,0,0,0,16.728,3.208ZM10.642,6.621h.781L12.3,8.243a.322.322,0,0,0,.314.2h1.02a.159.159,0,0,0,.111-.048.146.146,0,0,0,.05-.107.179.179,0,0,0-.023-.081l-1.05-1.813a1.605,1.605,0,0,0,.7-.553,1.5,1.5,0,0,0,.253-.878,1.488,1.488,0,0,0-.563-1.242,2.506,2.506,0,0,0-1.568-.438H9.453a.2.2,0,0,0-.134.051.175.175,0,0,0-.058.133V8.257a.177.177,0,0,0,.058.13.187.187,0,0,0,.134.055h.989a.205.205,0,0,0,.142-.051.172.172,0,0,0,.058-.133V6.622ZM4.271,3.282a.194.194,0,0,0-.134.051.17.17,0,0,0-.058.133V8.257a.174.174,0,0,0,.058.13.186.186,0,0,0,.134.055H5.306a.2.2,0,0,0,.141-.051A.17.17,0,0,0,5.5,8.257V6.644h.913a2.562,2.562,0,0,0,1.549-.417,1.458,1.458,0,0,0,.56-1.242,1.509,1.509,0,0,0-.564-1.268,2.48,2.48,0,0,0-1.544-.435ZM16.728,7.455a.908.908,0,0,1-.667-.244,1.085,1.085,0,0,1-.268-.744c-.005-.141-.008-.345-.008-.6s0-.468.008-.6a1.077,1.077,0,0,1,.272-.744.915.915,0,0,1,.663-.244.925.925,0,0,1,.667.244,1.036,1.036,0,0,1,.268.744c.011.274.016.478.016.6s-.005.316-.016.6a1.05,1.05,0,0,1-.264.744A.923.923,0,0,1,16.728,7.455ZM6.378,5.626h-.9V4.306h.9a.738.738,0,0,1,.541.181.659.659,0,0,1,.18.483.615.615,0,0,1-.192.49A.785.785,0,0,1,6.378,5.626Zm5.144-.051h-.881V4.306h.881a.759.759,0,0,1,.541.174.622.622,0,0,1,.18.468.592.592,0,0,1-.184.461A.783.783,0,0,1,11.523,5.575Z" fill="#2ecf96"/>
</svg>
