<svg xmlns="http://www.w3.org/2000/svg" width="16.508" height="17.333" viewBox="0 0 16.508 17.333">
  <path id="qr-code-01" d="M5.833,10H10v4.167M2.508,10H2.5m4.175,4.167H6.667M10.008,17.5H10M17.508,10H17.5m-15,4.167H3.75M12.917,10h1.667M2.5,17.5H6.667M10,1.667v5M14.667,17.5h1.5a2.071,2.071,0,0,0,.878-.091.834.834,0,0,0,.364-.364,2.071,2.071,0,0,0,.091-.878v-1.5a2.071,2.071,0,0,0-.091-.878.833.833,0,0,0-.364-.364,2.069,2.069,0,0,0-.878-.091h-1.5a2.069,2.069,0,0,0-.878.091.833.833,0,0,0-.364.364,2.069,2.069,0,0,0-.091.878v1.5a2.069,2.069,0,0,0,.091.878.833.833,0,0,0,.364.364A2.071,2.071,0,0,0,14.667,17.5Zm0-10.833h1.5a2.07,2.07,0,0,0,.878-.091.833.833,0,0,0,.364-.364,2.071,2.071,0,0,0,.091-.878v-1.5a2.071,2.071,0,0,0-.091-.878.833.833,0,0,0-.364-.364,2.07,2.07,0,0,0-.878-.091h-1.5a2.071,2.071,0,0,0-.878.091.833.833,0,0,0-.364.364,2.069,2.069,0,0,0-.091.878v1.5a2.069,2.069,0,0,0,.091.878.833.833,0,0,0,.364.364A2.071,2.071,0,0,0,14.667,6.667Zm-10.833,0h1.5a2.07,2.07,0,0,0,.878-.091.833.833,0,0,0,.364-.364,2.07,2.07,0,0,0,.091-.878v-1.5a2.07,2.07,0,0,0-.091-.878.833.833,0,0,0-.364-.364A2.07,2.07,0,0,0,5.333,2.5h-1.5a2.07,2.07,0,0,0-.878.091.833.833,0,0,0-.364.364,2.07,2.07,0,0,0-.091.878v1.5a2.07,2.07,0,0,0,.091.878.833.833,0,0,0,.364.364A2.07,2.07,0,0,0,3.833,6.667Z" transform="translate(-1.75 -0.917)" fill="none" stroke="#2e313d" stroke-linecap="round" stroke-linejoin="round" stroke-width="1.5"/>
</svg>