<svg xmlns="http://www.w3.org/2000/svg" width="73.346" height="12.008" viewBox="0 0 73.346 12.008">
  <g id="Group_1762" data-name="Group 1762" transform="translate(-125.82 -145.991)">
    <path id="Icon_feather-star" data-name="Icon feather-star" d="M8.524,3l1.707,3.458,3.817.558-2.762,2.69.652,3.8-3.414-1.8-3.414,1.8.652-3.8L3,7.016l3.817-.558Z" transform="translate(123.57 143.741)" fill="#ffc400" stroke="#ffc400" stroke-linecap="round" stroke-linejoin="round" stroke-width="1.5"/>
    <path id="Icon_feather-star-2" data-name="Icon feather-star" d="M8.524,3l1.707,3.458,3.817.558-2.762,2.69.652,3.8-3.414-1.8-3.414,1.8.652-3.8L3,7.016l3.817-.558Z" transform="translate(138.769 143.741)" fill="#ffc400" stroke="#ffc400" stroke-linecap="round" stroke-linejoin="round" stroke-width="1.5"/>
    <path id="Icon_feather-star-3" data-name="Icon feather-star" d="M8.524,3l1.707,3.458,3.817.558-2.762,2.69.652,3.8-3.414-1.8-3.414,1.8.652-3.8L3,7.016l3.817-.558Z" transform="translate(153.969 143.741)" fill="#ffc400" stroke="#ffc400" stroke-linecap="round" stroke-linejoin="round" stroke-width="1.5"/>
    <path id="Icon_feather-star-4" data-name="Icon feather-star" d="M8.524,3l1.707,3.458,3.817.558-2.762,2.69.652,3.8-3.414-1.8-3.414,1.8.652-3.8L3,7.016l3.817-.558Z" transform="translate(169.168 143.741)" fill="#ffc400" stroke="#ffc400" stroke-linecap="round" stroke-linejoin="round" stroke-width="1.5"/>
    <path id="Icon_feather-star-5" data-name="Icon feather-star" d="M8.524,3l1.707,3.458,3.817.558-2.762,2.69.652,3.8-3.414-1.8-3.414,1.8.652-3.8L3,7.016l3.817-.558Z" transform="translate(184.367 143.741)" fill="#ffc400" stroke="#ffc400" stroke-linecap="round" stroke-linejoin="round" stroke-width="1.5"/>
  </g>
</svg>