<svg xmlns="http://www.w3.org/2000/svg" width="21.999" height="21.999" viewBox="0 0 21.999 21.999">
  <g id="Icon_feather-settings" data-name="Icon feather-settings" transform="translate(-0.5 -0.5)">
    <path id="Pfad_46676" data-name="Pfad 46676" d="M20.59,17.045A3.545,3.545,0,1,1,17.045,13.5,3.545,3.545,0,0,1,20.59,17.045Z" transform="translate(-5.545 -5.545)" fill="none" stroke="#f1f1f1" stroke-linecap="round" stroke-linejoin="round" stroke-width="2"/>
    <path id="Pfad_46677" data-name="Pfad 46677" d="M18.227,14.227a1.5,1.5,0,0,0,.3,1.654l.055.055a1.819,1.819,0,1,1-2.573,2.573l-.055-.055a1.512,1.512,0,0,0-2.564,1.073v.155a1.818,1.818,0,0,1-3.636,0V19.6a1.5,1.5,0,0,0-.982-1.373,1.5,1.5,0,0,0-1.654.3l-.055.055a1.819,1.819,0,1,1-2.573-2.573l.055-.055A1.512,1.512,0,0,0,3.473,13.39H3.318a1.818,1.818,0,1,1,0-3.636H3.4a1.5,1.5,0,0,0,1.373-.982,1.5,1.5,0,0,0-.3-1.654l-.055-.055A1.819,1.819,0,1,1,6.991,4.491l.055.055a1.5,1.5,0,0,0,1.654.3h.073a1.5,1.5,0,0,0,.909-1.373V3.318a1.818,1.818,0,1,1,3.636,0V3.4a1.512,1.512,0,0,0,2.564,1.073l.055-.055a1.819,1.819,0,1,1,2.573,2.573l-.055.055a1.5,1.5,0,0,0-.3,1.654v.073a1.5,1.5,0,0,0,1.373.909h.155a1.818,1.818,0,0,1,0,3.636H19.6a1.5,1.5,0,0,0-1.373.909Z" transform="translate(0 0)" fill="none" stroke="#f1f1f1" stroke-linecap="round" stroke-linejoin="round" stroke-width="2"/>
  </g>
</svg>
