<svg xmlns="http://www.w3.org/2000/svg" width="15.71" height="14.502" viewBox="0 0 15.71 14.502">
  <g id="Icon_ionic-ios-open" data-name="Icon ionic-ios-open" transform="translate(-3.375 -4.5)">
    <path id="Path_29651" data-name="Path 29651" d="M10.165,16.024a.49.49,0,0,1,0-.695l5.049-5.049a1.493,1.493,0,0,0-.661-.155H4.886a1.515,1.515,0,0,0-1.511,1.511v8.459a1.515,1.515,0,0,0,1.511,1.511h9.668a1.515,1.515,0,0,0,1.511-1.511V11.636a1.493,1.493,0,0,0-.155-.661L10.86,16.024A.49.49,0,0,1,10.165,16.024Z" transform="translate(0 -2.604)" fill="#fff"/>
    <path id="Path_29652" data-name="Path 29652" d="M28.383,4.67a.589.589,0,0,0-.4-.17H24.324a.491.491,0,1,0-.008.982l2.542.019L24.682,7.676a1.511,1.511,0,0,1,.695.695L27.552,6.2l.019,2.542a.491.491,0,1,0,.982-.008v-3.7A.537.537,0,0,0,28.383,4.67Z" transform="translate(-9.468)" fill="#fff"/>
  </g>
</svg>
