<svg xmlns="http://www.w3.org/2000/svg" width="12.033" height="15.644" viewBox="0 0 12.033 15.644">
  <path id="Icon_ionic-ios-water" data-name="Icon ionic-ios-water" d="M16.377,7.075a16.816,16.816,0,0,0-3.414-3.633.322.322,0,0,0-.391,0,16.61,16.61,0,0,0-3.4,3.629,11.407,11.407,0,0,0-2.414,6.427c0,.045,0,.094,0,.139a4.914,4.914,0,0,0,.41,1.959,5.284,5.284,0,0,0,.572.989,6.208,6.208,0,0,0,5.031,2.437c3.324,0,6.02-2.41,6.02-5.385A11.451,11.451,0,0,0,16.377,7.075Zm-3.234,9.939h-.019a.33.33,0,0,1-.1-.643,4.682,4.682,0,0,0,3.249-3.038.327.327,0,0,1,.632.117V13.5A3.649,3.649,0,0,1,13.143,17.014Z" transform="translate(-6.75 -3.374)" fill="#1c9d87"/>
</svg>
